<svg version="1" xmlns="http://www.w3.org/2000/svg" width="1138.667" height="1138.667" viewBox="0 0 854.000000 854.000000"><path d="M408 89c-39.2 2.7-72.5 11.8-108.5 29.5-94 46.2-154.9 140.3-159.1 245.7-1.2 29.6 3.7 55.2 16.8 87.8 14.9 36.8 42.4 82.2 76.2 125.5C281.3 638.9 353 711.1 404.7 750c16.8 12.6 23.9 16.5 28.1 15.5 12.4-2.7 69.6-52.1 112.3-96.9 101.8-107 160-203.2 168-278.1 2.2-20.6-.6-54.7-6.7-80.5-19.6-83.5-75.4-153.8-151.9-191.5-31.5-15.5-59.8-24-92.9-28-15.9-1.8-39.2-2.5-53.6-1.5zm22.8 70.2c.9.9 1.2 13.2 1.2 49 0 28.3.4 47.8.9 47.8 1.3 0 3.4 6.1 9.1 26.8 5.8 21.4 6.1 24.2 2.4 27.1-2.4 1.9-4 2.1-16.4 2.1-12.4 0-14-.2-16.4-2.1-2-1.5-2.6-2.9-2.6-5.7 0-5.2 11.6-46.5 13.5-47.8 1.3-1 1.5-7.3 1.5-48.6 0-49 .1-49.8 4-49.8.9 0 2.1.5 2.8 1.2zm20.1 168.1c2.9 2 5 4.4 6.7 8l2.4 5.2V536h13.3c7.2 0 14.2.3 15.5.6 3.1.9 5.2 5.3 5.2 11.3 0 6.1-1.4 9.5-4.7 11-3.4 1.6-119.2 1.6-122.6 0-3.3-1.5-4.7-4.9-4.7-11 0-6 2.1-10.4 5.2-11.3 1.3-.3 8.3-.6 15.5-.6H396l.2-99.4.3-99.4 3-4.3c1.7-2.3 5-5.3 7.5-6.6 4.3-2.3 5.2-2.4 22.1-2.1 17.3.3 17.6.3 21.8 3.1zM448 586.9v16.9l8 .4c9.9.4 11.2 1.5 11.8 9.8.5 7.1-.9 11.3-4.4 12.9-3.5 1.5-67.3 1.5-70.8 0-3.5-1.6-4.9-5.8-4.4-12.9.6-8.7 1.7-9.4 13.8-9.8l10-.4V570h36v16.9z"/></svg>