<svg width="903" height="248" enable-background="new 0 0 903.2 248.3" viewBox="0 0 903.2 248.3" xmlns="http://www.w3.org/2000/svg"><path d="m245 156.2v-58.5h11.4l1.7 8.5c5.2-5.6 11.5-8.5 18.9-8.5s12.4 2.7 15.1 8c6-5.3 12.2-8 18.8-8 13.4 0 20.2 7.4 20.2 22.2v36.3h-14.8v-36.8c0-6.5-2.9-9.8-8.8-9.8-4.4 0-8.6 2-12.6 5.9v40.7h-14.8v-36.7c0-6.6-2.7-9.9-8.1-9.9-4.3 0-8.4 2-12.2 5.9v40.7z" fill="#3e3e3d"/><path d="m369.8 97.7c17.8 0 26.6 9.1 26.6 27.2 0 2.4-.2 4.8-.5 7.2h-38.9c0 8.2 6.1 12.4 18.2 12.4 5.9 0 11.8-.6 17.7-1.7v11.7c-5.2 1.1-11.4 1.7-18.8 1.7-21.2 0-31.8-10-31.8-29.9 0-19.1 9.1-28.6 27.5-28.6zm-12.8 24.2h25v-.4c0-8.1-4.1-12.1-12.3-12.1-7.7-.1-12 4.1-12.7 12.5z" fill="#3e3e3d"/><g fill="#6eb646"><path d="m441.6 108.9h-12.5c-6.2 0-9.2-2.8-9.2-8.4 0-7.5 6.4-11.2 19.6-11.2 8.8 0 17.3 1.5 25.2 4.4l.7.3v-14.5l-.3-.1c-8-2.6-16.6-3.9-25.5-3.9-23.4 0-35.3 8.4-35.3 25 0 15.1 8.4 22.8 25 22.8h12.5c7.2 0 10.8 2.8 10.8 8.4 0 7.9-5.8 11.8-17.8 11.8-10 0-19-1.5-26.9-4.4l-.7-.3v14.5l.3.1c8 2.6 17.2 3.9 27.2 3.9 22.3 0 33.6-8.6 33.6-25.6-.1-15.1-9.1-22.8-26.7-22.8z"/><path d="m505 97.1c-19.6 0-29.5 10.1-29.5 29.9.1 19.8 10 29.9 29.5 29.9 19.6 0 29.5-10 29.5-29.9s-10-29.9-29.5-29.9zm0 47.5c-9.2 0-13.7-5.8-13.7-17.8 0-11.7 4.5-17.4 13.7-17.4s13.7 5.7 13.7 17.4c0 11.9-4.5 17.8-13.7 17.8z"/><path d="m544.6 97.2h15.8v59.5h-15.8z"/><path d="m544.6 76h15.8v12.7h-15.8z"/><path d="m601.4 97.2c-20.5 0-30.9 9.9-30.9 29.4 0 19.2 8.9 29 26.6 29 4.8 0 9.4-.9 13.6-2.5-.3 8.2-5.3 12.1-15.4 12.1-7.1 0-13.5-.9-19.1-2.8l-.7-.2v12.8l.3.1c5.6 1.9 12.1 2.8 19.3 2.8 20.8 0 31.3-8.8 31.3-26.1v-52.1l-.4-.1c-9.5-1.6-17.8-2.4-24.6-2.4zm-.5 12.9c4.2 0 7.5.4 9.8 1.2v28.2c-3.9 1.9-7.9 2.8-11.9 2.8-8.5 0-12.7-5.2-12.7-15.8 0-11 4.9-16.4 14.8-16.4z"/><path d="m672.4 97.2c-7 0-13.3 2.7-18.9 8.1l-1.7-8.1h-12.3v59.5h15.8v-41.1c4.4-3.6 9-5.5 13.5-5.5 6.2 0 9.1 3 9.1 9.2v37.4h15.8v-37.4c0-14.6-7.2-22.1-21.3-22.1z"/><path d="m731.8 97.2c-18.6 0-28 9.8-28 29.1 0 20.2 10.9 30.4 32.3 30.4 7.4 0 13.8-.6 18.9-1.7l.4-.1v-12.7l-.6.1c-5.8 1.1-11.8 1.7-17.6 1.7-11.6 0-17.4-3.7-17.7-11.4h38.8l.1-.4c.3-2.4.5-4.9.5-7.3 0-18.4-9.1-27.7-27.1-27.7zm0 12.6c7.9 0 11.7 3.8 11.8 11.6h-23.9c.7-7.8 4.7-11.6 12.1-11.6z"/><path d="m799 97.2c-5.6 0-11 2.4-16 7l-1.7-7h-12.3v59.5h15.8v-40c4.2-4.4 9-6.6 14.3-6.6h.5v-12.9z"/></g><path d="m832.4 156.2v-58.5c0-16 8.8-24.1 26.3-24.1 4.8 0 9.1.7 13 2.2v11.7c-3.7-1.5-7.7-2.2-12-2.2-8.4 0-12.6 4.1-12.6 12.4h17.6v11.7h-17.6v46.8z" fill="#3e3e3d"/><path d="m873.7 156.2v-58.5h11.4l1.8 7.5c5.1-5 10.5-7.5 16.3-7.5v11.9c-5.5 0-10.4 2.3-14.8 6.9v39.7z" fill="#3e3e3d"/><circle cx="810.4" cy="149" fill="#3e3e3d" r="7.2"/><path d="m86.8 162.4-86.8 3.1 47.8-65.5 22.8-11.1z" fill="#dfd7d5"/><path d="m130.9 0-.3 81-43.8 81.4-24.2-110z" fill="#6eb646"/><path d="m226.8 82.8-47.7 65.5-22.9 11.1-16.2-73.5z" fill="#dfd7d5"/><path d="m164.2 195.9-68.3 52.4.4-81 43.7-81.4z" fill="#6eb646"/></svg>
