<svg xmlns="http://www.w3.org/2000/svg" xmlns:xlink="http://www.w3.org/1999/xlink" viewBox="0 0 341.1 57.5"><defs><style>.a{fill:none}.b{fill:#36383a}</style><clipPath id="a"><path class="a" d="M94.5 1.3Q90 1.3 87.7 3a7.2 7.2 0 0 0-3.4 6.3V15a6.4 6.4 0 0 0 3.1 5.6 12.8 12.8 0 0 0 7.3 1.9h7.1q5.6 0 5.6 3.8 0 4.2-.4 5-1 2-5.4 2H84.3v5.4h19.3a12.7 12.7 0 0 0 7.6-2 6.9 6.9 0 0 0 2.8-6v-5.9a6.6 6.6 0 0 0-2.7-5.7 12 12 0 0 0-7.3-2h-7.1a8.2 8.2 0 0 1-4.3-.8 3.5 3.5 0 0 1-1.6-3q0-3.8.6-4.8 1-1.7 5.3-1.7H114V1.3z"/></clipPath><linearGradient id="b" x1="-46.6" y1="157.5" x2="-45.5" y2="157.5" gradientTransform="matrix(0 22.68 22.68 0 -3472.3 1082.6)" gradientUnits="userSpaceOnUse"><stop offset="0" stop-color="#99c555"/><stop offset="1" stop-color="#608135"/></linearGradient><clipPath id="c"><path class="a" d="M128.2 33.1a3.1 3.1 0 0 1-1.5-2.8V19a3.3 3.3 0 0 1 1.5-2.9 6.6 6.6 0 0 1 3.6-.8h7.1a6.1 6.1 0 0 1 3.5.8 3.4 3.4 0 0 1 1.4 3v11.3a3.1 3.1 0 0 1-1.4 2.8 5.3 5.3 0 0 1-3 .7h-8a5.8 5.8 0 0 1-3.2-.8m2-22.5q-4.2 0-6.4 1.5a6.4 6.4 0 0 0-3 5.6v14a6.2 6.2 0 0 0 2.4 5.2q2.3 1.8 7 1.8h10.3q4.1 0 6.2-1.4a6.3 6.3 0 0 0 2.9-5.6v-14a6.5 6.5 0 0 0-2.8-5.7q-2-1.4-6.3-1.4z"/></clipPath><linearGradient id="d" x1="-46.5" y1="157.5" x2="-45.5" y2="157.5" gradientTransform="matrix(0 22.68 22.68 0 -3436.3 1082.6)" xlink:href="#b"/><clipPath id="e"><path class="a" d="M157.1 38.7h5.9v-28h-5.9zm0-37.7a3 3 0 0 0-1 2.3 2.8 2.8 0 0 0 1.1 2.2 4.2 4.2 0 0 0 2.7 1 4.3 4.3 0 0 0 2.8-1 2.8 2.8 0 0 0 1.2-2.3 2.8 2.8 0 0 0-1.2-2.3A4.3 4.3 0 0 0 160 0a4 4 0 0 0-2.7 1"/></clipPath><linearGradient id="f" x1="-46.6" y1="157.5" x2="-45.6" y2="157.5" gradientTransform="matrix(0 22.68 22.68 0 -3411.3 1082.8)" xlink:href="#b"/><clipPath id="g"><path class="a" d="M176.2 30.1v-11q0-3.7 4.7-3.7h7.4a6.2 6.2 0 0 1 4 1.2 3.6 3.6 0 0 1 1 3v13.2c0 .7-.4 1-1.3 1h-10.6q-5.2 0-5.2-3.7m3.4-19.5q-5 0-7.1 2t-2.1 5.9v13a6.2 6.2 0 0 0 2.4 5.3q2.5 1.9 7.4 1.9h13a7.3 7.3 0 0 1-.6 3.8q-1 1.5-4.2 1.5h-18v4.7h18.8q10 0 10-7.5V18q0-4-2.4-5.7t-7.3-1.6z"/></clipPath><linearGradient id="h" x1="-46.6" y1="157.5" x2="-45.6" y2="157.5" gradientTransform="matrix(0 22.68 22.68 0 -3386.6 1082.8)" xlink:href="#b"/><clipPath id="i"><path class="a" d="M215.5 10.6q-9 0-9 6.9v21.2h5.9v-20q0-3.3 5-3.4h6.7q5 0 5 3.5v19.9h5.9V17.5q0-6.9-9-6.9z"/></clipPath><linearGradient id="j" x1="-46.5" y1="157.5" x2="-45.5" y2="157.5" gradientTransform="matrix(0 22.68 22.68 0 -3350.8 1082.6)" xlink:href="#b"/><clipPath id="k"><path class="a" d="M248.3 19q0-3.6 5.5-3.6h6.5q4.7 0 4.7 3.2v.4l-16.7 5.6zm3.5-8.3q-9.5 0-9.5 7.2V31a6.8 6.8 0 0 0 3 6q2.2 1.5 7 1.5H271V34h-17.5a7 7 0 0 1-3.6-.7 3.5 3.5 0 0 1-1.6-3.2v-.8l22.8-7.5V18q0-7.5-8.9-7.5z"/></clipPath><linearGradient id="l" x1="-46.5" y1="157.5" x2="-45.5" y2="157.5" gradientTransform="matrix(0 22.68 22.68 0 -3314.9 1082.6)" xlink:href="#b"/><clipPath id="m"><path class="a" d="M287 10.6q-9.2 0-9.2 7.5v20.6h5.9V19.4q0-3 2.3-3.7a25.2 25.2 0 0 1 5.5-.4v-4.7z"/></clipPath><linearGradient id="n" x1="-46.5" y1="157.5" x2="-45.5" y2="157.5" gradientTransform="matrix(0 22.68 22.68 0 -3286.9 1082.6)" xlink:href="#b"/></defs><path class="b" d="M42 38.7h-5.9V19.2a3.3 3.3 0 0 0-2.5-3.6 30 30 0 0 0-5.5-.3 4.6 4.6 0 0 0-3.3 1.2 3.7 3.7 0 0 0-.8 2.8v19.4h-6V19.3q0-2.9-2-3.6a25.5 25.5 0 0 0-5.5-.4q-4.6 0-4.6 3.9v19.5H0V18q0-7.4 8.6-7.4H14a11.3 11.3 0 0 1 4.1.6 7.5 7.5 0 0 1 3 2.3 8.8 8.8 0 0 1 7-2.9h5.4a9.2 9.2 0 0 1 6.2 2A6.8 6.8 0 0 1 42 18zM78.1 21.7l-22.7 7.5v.8a3.5 3.5 0 0 0 1.5 3.2 7 7 0 0 0 3.6.7h17.6v4.8H59.4q-4.8 0-7.1-1.6a6.8 6.8 0 0 1-3-6V17.8q0-7.2 9.5-7.2h10.5q8.8 0 8.8 7.5zM72 19v-.5q0-3.2-4.7-3.2h-6.5q-5.4 0-5.4 3.6v5.6z"/><g clip-path="url(#a)"><path fill="url(#b)" d="M84.3 1.3H114v37.4H84.3z"/></g><g clip-path="url(#c)"><path fill="url(#d)" d="M120.8 10.6h28.8v28.1h-28.8z"/></g><g clip-path="url(#e)"><path fill="url(#f)" d="M156.1 0h7.8v38.7h-7.8z"/></g><g clip-path="url(#g)"><path fill="url(#h)" d="M170.4 10.6h28.8v38h-28.8z"/></g><g clip-path="url(#i)"><path fill="url(#j)" d="M206.5 10.6h28.4v28.1h-28.4z"/></g><g clip-path="url(#k)"><path fill="url(#l)" d="M242.3 10.6H271v28.1h-28.7z"/></g><g clip-path="url(#m)"><path fill="url(#n)" d="M277.8 10.6h13.7v28.1h-13.7z"/></g><path class="b" d="M302.4 35.7a3 3 0 0 1-1.2 2.4 4.8 4.8 0 0 1-5.7 0 2.9 2.9 0 0 1-1.2-2.3 3 3 0 0 1 1.1-2.4 4.2 4.2 0 0 1 2.9-1 4.5 4.5 0 0 1 2.9 1 3 3 0 0 1 1.2 2.4M322.6 15.3h-7.7v23.4H309v-31a5.9 5.9 0 0 1 2.6-5 10.8 10.8 0 0 1 6.5-2h4.5v4.7h-3.2a5.1 5.1 0 0 0-3.2 1 3.2 3.2 0 0 0-1.3 2.6v1.6h7.7zM341.1 15.3a25.3 25.3 0 0 0-5.5.4q-2.3.7-2.3 3.7v19.3h-5.8V18.1q0-7.5 9.2-7.5h4.4zM1.2 55.1V49h1v.9a2.3 2.3 0 0 1 1-.8 2.7 2.7 0 0 1 1.1-.3 2.5 2.5 0 0 1 1.3.3 1.6 1.6 0 0 1 .7.8 2.8 2.8 0 0 1 1-.8 2.6 2.6 0 0 1 1.1-.3 2.3 2.3 0 0 1 1.6.5 2 2 0 0 1 .6 1.6v4.3H9.4v-3.9a2.4 2.4 0 0 0-.1-1 1 1 0 0 0-.5-.4 1.4 1.4 0 0 0-.6-.1 1.7 1.7 0 0 0-1.3.4 1.8 1.8 0 0 0-.4 1.4v3.6H5.3v-4A1.5 1.5 0 0 0 5 50a1.2 1.2 0 0 0-.9-.3 1.7 1.7 0 0 0-1.2.5 2.5 2.5 0 0 0-.5 1.7v3.2zM16.8 54.4a4.5 4.5 0 0 1-1.3.6 3.8 3.8 0 0 1-1.3.3 2.8 2.8 0 0 1-1.7-.5 1.5 1.5 0 0 1-.6-1.3 1.6 1.6 0 0 1 .3-1 2 2 0 0 1 .8-.7 5.5 5.5 0 0 1 1.6-.3 11.5 11.5 0 0 0 2-.4V51a1.1 1.1 0 0 0-.3-.9 2 2 0 0 0-1.3-.4 2.4 2.4 0 0 0-1.2.3 1.5 1.5 0 0 0-.6 1l-1.2-.2a2.2 2.2 0 0 1 1-1.5 4.1 4.1 0 0 1 2.2-.4 4 4 0 0 1 1.7.3 1.4 1.4 0 0 1 .8.7 4 4 0 0 1 .1 1.3v1.4a13.3 13.3 0 0 0 0 1.9 2.3 2.3 0 0 0 .4.7H17a2 2 0 0 1-.2-.7m-.1-2.4a9.4 9.4 0 0 1-2 .4 4.6 4.6 0 0 0-1 .2 1 1 0 0 0-.4.3.9.9 0 0 0 .2 1.3 1.7 1.7 0 0 0 1 .2 2.6 2.6 0 0 0 1.1-.2 1.8 1.8 0 0 0 .8-.6 2.2 2.2 0 0 0 .3-1.2zM23.4 57.5V49h1v.8a2.4 2.4 0 0 1 .9-.7 2.6 2.6 0 0 1 1.1-.2 3 3 0 0 1 1.5.3 2.6 2.6 0 0 1 1 1.1 3.6 3.6 0 0 1 .4 1.8 3.2 3.2 0 0 1-.9 2.4 3 3 0 0 1-2 .9 2.5 2.5 0 0 1-1-.2 2.3 2.3 0 0 1-.9-.6v3zm1-5.5a2.5 2.5 0 0 0 .6 1.8 1.8 1.8 0 0 0 2.6 0 3.3 3.3 0 0 0 0-3.6 1.7 1.7 0 0 0-1.3-.6 1.7 1.7 0 0 0-1.3.6 2.6 2.6 0 0 0-.6 1.8M30.7 55.1v-8.6H32v3.1a2.7 2.7 0 0 1 1-.6 3 3 0 0 1 1.1-.2 2.7 2.7 0 0 1 1.7.5 2.4 2.4 0 0 1 .7 1.9v4h-1.2v-4a1.5 1.5 0 0 0-.4-1.2 1.5 1.5 0 0 0-1-.3 2 2 0 0 0-1.4.4 2 2 0 0 0-.5 1.6v3.4zM42.6 54.4a4.5 4.5 0 0 1-1.2.6 3.8 3.8 0 0 1-1.3.3 2.8 2.8 0 0 1-1.7-.5 1.5 1.5 0 0 1-.7-1.3 1.6 1.6 0 0 1 .3-1 2 2 0 0 1 .8-.7 5.5 5.5 0 0 1 1.6-.3 11.5 11.5 0 0 0 2.1-.4V51a1.1 1.1 0 0 0-.3-.9 2 2 0 0 0-1.3-.4 2.3 2.3 0 0 0-1.3.3 1.5 1.5 0 0 0-.6 1l-1.1-.2a2.2 2.2 0 0 1 1-1.5 4.1 4.1 0 0 1 2.1-.4 4 4 0 0 1 1.7.3 1.4 1.4 0 0 1 .8.7 4 4 0 0 1 .2 1.3v1.4a13.2 13.2 0 0 0 0 1.9 2.3 2.3 0 0 0 .3.7H43a2 2 0 0 1-.3-.7m0-2.4a9.5 9.5 0 0 1-2 .4 4.6 4.6 0 0 0-1 .2 1 1 0 0 0-.4.3.9.9 0 0 0 .2 1.3 1.7 1.7 0 0 0 1 .2 2.6 2.6 0 0 0 1-.2 1.8 1.8 0 0 0 .9-.6 2.2 2.2 0 0 0 .2-1.2zM45.5 55.1V49h1v1a2.7 2.7 0 0 1 .8-1 1.4 1.4 0 0 1 .8-.1 2.4 2.4 0 0 1 1.1.3l-.4 1a1.8 1.8 0 0 0-.8-.2 1.3 1.3 0 0 0-.7.2 1 1 0 0 0-.4.5 3.7 3.7 0 0 0-.2 1.3V55zM50 55.1V49h1v.9a2.3 2.3 0 0 1 .8-.8 2.7 2.7 0 0 1 1.2-.2 2.5 2.5 0 0 1 1.3.2 1.6 1.6 0 0 1 .7.8 2.8 2.8 0 0 1 1-.8 2.6 2.6 0 0 1 1.2-.3 2.3 2.3 0 0 1 1.5.5 2 2 0 0 1 .6 1.6v4.3h-1.2v-3.9a2.4 2.4 0 0 0-.1-1 1 1 0 0 0-.4-.4 1.4 1.4 0 0 0-.7-.1 1.7 1.7 0 0 0-1.2.4 1.8 1.8 0 0 0-.5 1.4v3.6H54v-4a1.5 1.5 0 0 0-.3-1.1 1.2 1.2 0 0 0-.9-.3 1.7 1.7 0 0 0-1.2.5 2.5 2.5 0 0 0-.5 1.7v3.2zM65.5 54.4a4.5 4.5 0 0 1-1.2.6 3.8 3.8 0 0 1-1.3.3 2.8 2.8 0 0 1-1.8-.5 1.5 1.5 0 0 1-.6-1.3 1.6 1.6 0 0 1 .3-1 2 2 0 0 1 .8-.7 5.5 5.5 0 0 1 1.6-.3 11.5 11.5 0 0 0 2-.4V51a1.1 1.1 0 0 0-.2-.9 2 2 0 0 0-1.4-.4 2.4 2.4 0 0 0-1.2.3 1.5 1.5 0 0 0-.6 1l-1.1-.2a2.2 2.2 0 0 1 1-1.5 4.1 4.1 0 0 1 2.1-.4 4 4 0 0 1 1.7.3 1.4 1.4 0 0 1 .8.7 4 4 0 0 1 .2 1.3v1.4a13.3 13.3 0 0 0 0 1.9 2.3 2.3 0 0 0 .3.7h-1.2a2 2 0 0 1-.2-.7m-.1-2.4a9.4 9.4 0 0 1-2 .4 4.6 4.6 0 0 0-1 .2 1 1 0 0 0-.4.4.9.9 0 0 0 .2 1.2 1.7 1.7 0 0 0 1 .3 2.6 2.6 0 0 0 1.1-.2 1.8 1.8 0 0 0 .8-.7 2.2 2.2 0 0 0 .3-1.2zM72.9 52.8l1.1.2a2.6 2.6 0 0 1-1 1.7 3.4 3.4 0 0 1-4.1-.2A3.2 3.2 0 0 1 68 52a3.1 3.1 0 0 1 .9-2.4 3.2 3.2 0 0 1 2.2-.8 3.1 3.1 0 0 1 1.8.4 2.2 2.2 0 0 1 1 1.5l-1.1.2a1.7 1.7 0 0 0-.6-1 1.6 1.6 0 0 0-1-.3 2 2 0 0 0-1.5.6 2.5 2.5 0 0 0-.5 1.8 2.6 2.6 0 0 0 .5 1.8 1.8 1.8 0 0 0 1.4.6 1.8 1.8 0 0 0 1.2-.4 1.8 1.8 0 0 0 .6-1.2M75 46.5h1.2v1.2H75zm0 2.4h1.2v6.2H75zM82.7 53.1l1.2.1a2.6 2.6 0 0 1-1.1 1.5 3.5 3.5 0 0 1-2 .6 3.4 3.4 0 0 1-2.3-.9 3 3 0 0 1-1-2.3 3.2 3.2 0 0 1 1-2.5 3.3 3.3 0 0 1 2.3-.8 3 3 0 0 1 3.1 3.2v.3h-5.1a2.2 2.2 0 0 0 .7 1.6 2 2 0 0 0 1.4.5 1.8 1.8 0 0 0 1.8-1.3m-3.8-1.7h3.8a2 2 0 0 0-.5-1.2 2 2 0 0 0-1.4-.6 2 2 0 0 0-1.3.5 1.8 1.8 0 0 0-.7 1.3M91.7 54.2l.1 1a4.6 4.6 0 0 1-.9 0 2.3 2.3 0 0 1-.9-.2 1 1 0 0 1-.5-.5 3.6 3.6 0 0 1-.2-1.2v-3.6h-.8V49h.8v-1.5l1.2-.7V49h1.2v.8h-1.2v3.7a1.3 1.3 0 0 0 0 .6.7.7 0 0 0 .6.2 4.2 4.2 0 0 0 .6 0M92.3 52a3.1 3.1 0 0 1 1-2.4 3.7 3.7 0 0 1 4.5 0 3 3 0 0 1 1 2.3 3.2 3.2 0 0 1-1 2.5 3.7 3.7 0 0 1-4.6 0 3 3 0 0 1-.9-2.4m1.2 0a2.4 2.4 0 0 0 .6 1.8 2 2 0 0 0 1.5.6 2 2 0 0 0 1.4-.6 3 3 0 0 0 0-3.6 2 2 0 0 0-1.5-.6 2 2 0 0 0-1.4.6 2.5 2.5 0 0 0-.6 1.8M104.7 55.1v-.9a2.6 2.6 0 0 1-1 .8 3 3 0 0 1-2.6 0 1.6 1.6 0 0 1-.8-.9 3.9 3.9 0 0 1-.2-1.3v-3.9h1.2v3.5a4 4 0 0 0 .1 1.2 1 1 0 0 0 .5.6 1.6 1.6 0 0 0 .8.2 2 2 0 0 0 1.4-.6 2.2 2.2 0 0 0 .4-1.6V49h1.2v6.2zM110.1 54.2l.2 1a4.6 4.6 0 0 1-.9 0 2.3 2.3 0 0 1-1-.2 1 1 0 0 1-.5-.5 3.6 3.6 0 0 1-.1-1.2v-3.6h-.9V49h.9v-1.5l1.1-.7V49h1.2v.8H109v3.7a1.3 1.3 0 0 0 .1.6.6.6 0 0 0 .6.2 4.2 4.2 0 0 0 .5 0M119.4 55.1v-.8a2 2 0 0 1-.8.7 2.5 2.5 0 0 1-1.1.3 3 3 0 0 1-2.1-.9 3.2 3.2 0 0 1-.9-2.4 3.8 3.8 0 0 1 .4-1.8 2.6 2.6 0 0 1 1-1 3 3 0 0 1 1.5-.5 2.5 2.5 0 0 1 1 .3 2.2 2.2 0 0 1 .9.6v-3h1.2V55zm-3.7-3.1a2.5 2.5 0 0 0 .6 1.8 1.8 1.8 0 0 0 1.3.6 1.7 1.7 0 0 0 1.3-.6 2.4 2.4 0 0 0 .5-1.7 2.8 2.8 0 0 0-.5-1.9 1.8 1.8 0 0 0-1.4-.6 1.7 1.7 0 0 0-1.3.6 2.6 2.6 0 0 0-.5 1.8M127 53.1l1.2.1a2.6 2.6 0 0 1-1 1.5 3.5 3.5 0 0 1-2 .6 3.4 3.4 0 0 1-2.4-.9 3 3 0 0 1-1-2.3 3.2 3.2 0 0 1 1-2.5 3.3 3.3 0 0 1 2.3-.8 3 3 0 0 1 3.2 3.2v.3H123a2.3 2.3 0 0 0 .7 1.6 2 2 0 0 0 1.4.5A1.8 1.8 0 0 0 127 53m-3.8-1.7h3.8a2 2 0 0 0-.5-1.2 2 2 0 0 0-1.4-.6 2 2 0 0 0-1.3.5 1.8 1.8 0 0 0-.7 1.3M133 53.3l1.1-.2a1.4 1.4 0 0 0 .6 1 2.5 2.5 0 0 0 2.4 0 .8.8 0 0 0 .4-.7.6.6 0 0 0-.4-.6 5.4 5.4 0 0 0-1.2-.3 10.5 10.5 0 0 1-1.8-.6 1.8 1.8 0 0 1-.7-.5 1.4 1.4 0 0 1-.3-.9 1.5 1.5 0 0 1 .7-1.3 3.2 3.2 0 0 1 2-.5 4 4 0 0 1 1.3.2 2.1 2.1 0 0 1 .9.6 2 2 0 0 1 .4 1l-1.1.1q-.2-1-1.5-1a2.2 2.2 0 0 0-1.2.3.7.7 0 0 0-.3.5.6.6 0 0 0 .3.6 7.5 7.5 0 0 0 1.3.3 11.7 11.7 0 0 1 1.9.6 1.6 1.6 0 0 1 .6.5 1.4 1.4 0 0 1 .3.9 1.7 1.7 0 0 1-.8 1.4 3.5 3.5 0 0 1-2 .5q-2.5 0-3-2M144.6 55.1v-.9a2.6 2.6 0 0 1-1 .8 3 3 0 0 1-2.6 0 1.6 1.6 0 0 1-.8-.9 3.9 3.9 0 0 1-.2-1.3v-3.9h1.2v3.5a4 4 0 0 0 .1 1.2 1 1 0 0 0 .5.6 1.6 1.6 0 0 0 .8.2 2 2 0 0 0 1.4-.6 2.2 2.2 0 0 0 .4-1.6V49h1.2v6.2zM147.4 46.5h1.2v1.2h-1.2zm0 2.4h1.2v6.2h-1.2zM153 54.2l.2 1a4.6 4.6 0 0 1-1 0 2.3 2.3 0 0 1-1-.2 1 1 0 0 1-.4-.5 3.5 3.5 0 0 1-.2-1.2v-3.6h-.8V49h.8v-1.5l1.2-.7V49h1.2v.8h-1.2v3.7a1.3 1.3 0 0 0 .1.6.6.6 0 0 0 .6.2 4.2 4.2 0 0 0 .5 0M158.8 53.1l1.2.1a2.6 2.6 0 0 1-1.1 1.5 3.5 3.5 0 0 1-2 .6 3.4 3.4 0 0 1-2.3-.9 3 3 0 0 1-1-2.3 3.2 3.2 0 0 1 1-2.5 3.3 3.3 0 0 1 2.3-.8A3 3 0 0 1 160 52v.3h-5.1a2.3 2.3 0 0 0 .6 1.6 2 2 0 0 0 1.4.5 1.8 1.8 0 0 0 1.9-1.3m-3.9-1.7h3.9a2 2 0 0 0-.5-1.2 2 2 0 0 0-1.4-.6 2 2 0 0 0-1.4.5 1.8 1.8 0 0 0-.6 1.3"/></svg>