<?xml version="1.0" encoding="UTF-8"?>
<svg width="613px" height="159px" viewBox="0 0 613 159" version="1.1" xmlns="http://www.w3.org/2000/svg" xmlns:xlink="http://www.w3.org/1999/xlink">
    <!-- Generator: Sketch 52.2 (67145) - http://www.bohemiancoding.com/sketch -->
    <title>Group 2</title>
    <desc>Created with Sketch.</desc>
    <g id="Symbols" stroke="none" stroke-width="1" fill="none" fill-rule="evenodd">
        <g id="Logo-Bimedoc">
            <g id="Group-2">
                <g id="Group-Copy" transform="translate(0.000000, 0.000000)">
                    <path d="M94.6672586,125.26242 L37.1373667,156.090529 C24.4612416,162.883188 9.04719695,157.37665 2.70913439,143.791331 C0.927529655,139.972551 0,135.761659 0,131.492133 L0,69.3439478 C0,54.1550996 11.4889505,41.8421053 25.6612893,41.8421053 C29.6450786,41.8421053 33.5741572,42.8361619 37.1373667,44.745552 L94.6672586,75.5736607 C107.470145,82.4342467 112.65954,99.1190582 106.258097,112.84023 C103.750185,118.215814 99.6830828,122.574628 94.6672586,125.26242 Z" id="Triangle" fill="#BD10E0" style="mix-blend-mode: darken;"/>
                    <path d="M81.5594843,71.503127 L31.9952698,97.9272202 C21.0743004,103.7495 7.79450814,99.0296096 2.33402347,87.3850505 C0.799102472,84.1118103 0,80.5024748 0,76.8428809 L0,23.5730079 C0,10.5539951 9.89817278,0 22.1081877,0 C25.5403754,0 28.9254278,0.852048533 31.9952698,2.48866866 L81.5594843,28.9127618 C92.5896633,34.7932641 97.0605267,49.0945311 91.5454372,60.8555357 C89.3847745,65.4631789 85.8808098,69.1993054 81.5594843,71.503127 Z" id="Triangle-Copy" fill="#2F17FD" style="mix-blend-mode: darken;"/>
                </g>
                <path d="M208.3,29 L208.3,77.2236459 C213.620027,71.787781 219.6493,69.0698893 226.388,69.0698893 C234.151298,69.0698893 240.614048,71.9236756 245.776444,77.6313337 C250.938841,83.3001642 253.52,90.3666826 253.52,98.8311008 C253.52,107.567312 250.919137,114.789139 245.717333,120.496797 C240.554937,126.165627 234.033076,129 226.151556,129 C219.49167,129 213.541211,126.476243 208.3,121.428655 L208.376,129 L195,129 L195,29 L208.3,29 Z M241.816,99.3226667 C241.816,93.8470837 240.347421,89.3884617 237.410219,85.9466667 C234.43437,82.4266491 230.704952,80.6666667 226.221854,80.6666667 C221.429577,80.6666667 217.526249,82.367983 214.511752,85.7706667 C211.535902,89.134239 210.048,93.5146397 210.048,98.912 C210.048,104.465806 211.516579,108.904872 214.453781,112.229333 C217.390983,115.632017 221.255665,117.333333 226.047942,117.333333 C230.569687,117.333333 234.318428,115.632017 237.294277,112.229333 C240.308774,108.787538 241.816,104.485359 241.816,99.3226667 Z M275.256,70.6666667 L275.256,129 L261.88,129 L261.88,70.6666667 L275.256,70.6666667 Z M285.288,70.5734266 L298.522581,70.5734266 L298.522581,75.8181818 C301.071476,73.176366 303.247807,71.3892821 305.051641,70.4568765 C306.973115,69.4856206 309.384726,69 312.286545,69 C318.756817,69 323.874137,71.7971748 327.638659,77.3916084 C331.795318,71.7971748 337.42241,69 344.520102,69 C357.421432,69 363.872,76.7505052 363.872,92.2517483 L363.872,129 L350.578599,129 L350.578599,95.8065268 C350.578599,90.3674942 349.911975,86.5213788 348.578707,84.2680653 C347.206225,81.9759015 344.951467,80.8298368 341.814365,80.8298368 C338.167485,80.8298368 335.510792,82.1895746 333.844207,84.9090909 C332.177621,87.6286072 331.344341,91.9991929 331.344341,98.020979 L331.344341,129 L318.05094,129 L318.05094,95.981352 C318.05094,85.8802914 315.109952,80.8298368 309.227886,80.8298368 C305.502578,80.8298368 302.787065,82.2089994 301.081266,84.967366 C299.375468,87.7257325 298.522581,92.0768934 298.522581,98.020979 L298.522581,129 L285.288,129 L285.288,70.5734266 Z M426.880841,102.061224 L385.996713,102.061224 C386.348155,106.725971 387.871044,110.438276 390.565427,113.198251 C392.361682,115.012319 395.817504,116.372863 400.932892,117.279883 L400.932892,129 C390.389724,127.185959 383.399983,124.464871 379.963669,120.836735 C374.809197,115.355658 372.232,108.086537 372.232,99.0291545 C372.232,90.0495178 374.7311,82.7803971 379.729376,77.2215743 C384.7667,71.7404974 391.443984,69 399.761427,69 C408.156968,69 414.795203,71.6627528 419.676331,76.9883382 C424.518411,82.2750507 426.939414,89.6024799 426.939414,98.9708455 L426.880841,102.061224 Z M412.36,90.6666667 C410.505501,83.9999667 406.027151,80.6666667 398.924814,80.6666667 C397.30706,80.6666667 395.787972,80.8981458 394.367504,81.3611111 C392.947037,81.8240764 391.654826,82.4907364 390.490832,83.3611111 C389.326838,84.2314858 388.330553,85.2777717 387.501947,86.5 C386.673341,87.7222283 386.042032,89.1111033 385.608,90.6666667 L412.36,90.6666667 Z M477.584889,29 L490.944,29 L490.944,127.369249 L477.584889,127.369249 L477.584889,121.428655 C472.343677,126.476243 466.412922,129 459.792444,129 C451.910924,129 445.369359,126.165627 440.167556,120.496797 C435.005159,114.711483 432.424,107.489657 432.424,98.8311008 C432.424,90.3666826 435.005159,83.3001642 440.167556,77.6313337 C445.290544,71.9236756 451.733591,69.0698893 459.496889,69.0698893 C466.235589,69.0698893 472.264862,71.787781 477.584889,77.2236459 L477.584889,29 Z M444.128,98.736 C444.128,104.211583 445.577256,108.670205 448.47581,112.112 C451.45166,115.592906 455.200401,117.333333 459.722146,117.333333 C464.55307,117.333333 468.456399,115.651572 471.432248,112.288 C474.408098,108.807094 475.896,104.387582 475.896,99.0293333 C475.896,93.6710843 474.408098,89.251573 471.432248,85.7706667 C468.456399,82.367983 464.591717,80.6666667 459.838088,80.6666667 C455.35499,80.6666667 451.606249,82.3875383 448.591752,85.8293333 C445.615902,89.3102396 444.128,93.6124188 444.128,98.736 Z M499.304,98.5626822 C499.304,90.3605032 502.300911,83.3829248 508.294822,77.6297376 C514.288733,71.8765504 521.592463,69 530.206229,69 C538.85969,69 546.203114,71.8959866 552.23672,77.6880466 C558.190936,83.4801067 561.168,90.5937382 561.168,99.0291545 C561.168,107.542317 558.171089,114.675384 552.177178,120.428571 C546.143572,126.142886 538.740607,129 529.968062,129 C521.274906,129 513.991023,126.084577 508.116196,120.253644 C502.241369,114.500457 499.304,107.270209 499.304,98.5626822 Z M512.68,98.736 C512.68,104.446251 514.181608,108.963539 517.18487,112.288 C520.265139,115.651572 524.327183,117.333333 529.371123,117.333333 C534.453566,117.333333 538.515609,115.671128 541.557375,112.346667 C544.59914,109.022206 546.12,104.583139 546.12,99.0293333 C546.12,93.4755278 544.59914,89.0364611 541.557375,85.712 C538.477106,82.3484276 534.415063,80.6666667 529.371123,80.6666667 C524.404189,80.6666667 520.380649,82.3484276 517.30038,85.712 C514.220111,89.0755724 512.68,93.4168623 512.68,98.736 Z M613,73.0233236 L613,90.4577259 C610.010904,86.8036746 607.332403,84.2964111 604.964418,82.9358601 C602.635252,81.5364362 599.898523,80.8367347 596.754149,80.8367347 C591.824081,80.8367347 587.728693,82.5665522 584.467861,86.0262391 C581.207028,89.4859259 579.576637,93.8201878 579.576637,99.0291545 C579.576637,104.35474 581.1488,108.727874 584.293174,112.148688 C587.476367,115.569502 591.532937,117.279883 596.463005,117.279883 C599.607379,117.279883 602.382927,116.599618 604.789731,115.239067 C607.118897,113.917389 609.855626,111.351817 613,107.542274 L613,124.860058 C607.681738,127.620033 602.363556,129 597.045294,129 C588.272102,129 580.93534,126.162322 575.034786,120.48688 C569.134233,114.772566 566.184,107.678371 566.184,99.2040816 C566.184,90.7297924 569.173051,83.5772886 575.151244,77.7463557 C581.129436,71.9154227 588.466199,69 597.161751,69 C602.751749,69 608.031113,70.3410945 613,73.0233236 Z" id="bimedoc.-copy-2" fill="#1B2B45"/>
                <rect id="Rectangle-12" fill="#2F17FD" x="262" y="50" width="13" height="13"/>
                <rect id="Rectangle-12-Copy" fill="#BD10E0" x="413" y="116" width="13" height="13"/>
            </g>
        </g>
    </g>
</svg>