<svg width="12" height="12" viewBox="0 0 12 12" fill="none" xmlns="http://www.w3.org/2000/svg">
<path d="M11.6855 8.3999L11.6782 1.03174C11.6782 0.614258 11.4072 0.321289 10.9678 0.321289H3.59961C3.18945 0.321289 2.91113 0.63623 2.91113 0.987793C2.91113 1.33936 3.22607 1.63965 3.57031 1.63965H6.11914L9.69336 1.52246L8.33105 2.71631L1.07275 9.98926C0.940918 10.1211 0.867676 10.2896 0.867676 10.4507C0.867676 10.8022 1.18262 11.1318 1.54883 11.1318C1.71729 11.1318 1.87842 11.0732 2.01025 10.9341L9.2832 3.66846L10.4917 2.29883L10.3599 5.71924V8.4292C10.3599 8.77344 10.6602 9.0957 11.019 9.0957C11.3706 9.0957 11.6855 8.79541 11.6855 8.3999Z" fill="#252525"/>
</svg>
