<?xml version="1.0" encoding="UTF-8" standalone="no"?><!DOCTYPE svg PUBLIC "-//W3C//DTD SVG 1.1//EN" "http://www.w3.org/Graphics/SVG/1.1/DTD/svg11.dtd"><svg width="100%" height="100%" viewBox="0 0 24 24" version="1.1" xmlns="http://www.w3.org/2000/svg" xmlns:xlink="http://www.w3.org/1999/xlink" xml:space="preserve" xmlns:serif="http://www.serif.com/" style="fill-rule:evenodd;clip-rule:evenodd;stroke-linejoin:round;stroke-miterlimit:1.41421;"><path d="M1.352,15.492c-0.6,0.624 -0.6,1.637 0,2.261l5.197,5.398c0.601,0.624 1.576,0.624 2.177,0c0.601,-0.624 0.601,-1.637 0,-2.261l-5.197,-5.398c-0.601,-0.624 -1.576,-0.624 -2.177,0Z" style="fill:#5e5e5e;"/><path d="M5.478,11.2c-0.601,0.624 -0.601,1.637 0,2.261l5.197,5.398c0.601,0.624 1.576,0.624 2.177,0c0.6,-0.624 0.6,-1.637 0,-2.261l-5.197,-5.398c-0.601,-0.623 -1.576,-0.623 -2.177,0Z" style="fill:#5e5e5e;"/><path d="M7.941,12.045c-0.455,0.473 -0.455,1.241 0,1.714l2.447,2.541c0.455,0.473 1.194,0.473 1.65,0l6.005,-6.237c0.455,-0.473 0.455,-1.241 0,-1.714l-2.446,-2.541c-0.456,-0.473 -1.195,-0.473 -1.651,0l-6.005,6.237Z" style="fill:#5e5e5e;"/><path d="M4.899,16.915l2.458,2.553l1.418,-1.473l-2.458,-2.553l-1.418,1.473Z" style="fill:#5e5e5e;"/><path d="M15.695,3.984c-0.3,0.312 -0.3,0.819 0,1.13l3.099,3.219c0.3,0.312 0.788,0.312 1.088,0c0.301,-0.312 0.301,-0.818 0,-1.13l-3.099,-3.219c-0.3,-0.312 -0.788,-0.312 -1.088,0Z" style="fill:#5e5e5e;"/><path d="M22.741,0.979c-0.303,-0.309 -0.862,-0.229 -1.247,0.179l-3.974,4.206c-0.385,0.407 -0.452,0.989 -0.148,1.298c0.303,0.309 0.861,0.229 1.247,-0.179l3.973,-4.206c0.386,-0.407 0.452,-0.989 0.149,-1.298Z" style="fill:#5e5e5e;"/></svg>