<?xml version="1.0" encoding="UTF-8"?>
<svg width="427px" height="474px" viewBox="0 0 427 474" version="1.1" xmlns="http://www.w3.org/2000/svg" xmlns:xlink="http://www.w3.org/1999/xlink">
    <title>1 copy</title>
    <defs>
        <linearGradient x1="50%" y1="0%" x2="50%" y2="80.3939512%" id="linearGradient-1">
            <stop stop-color="#3CCBD1" offset="0%"></stop>
            <stop stop-color="#5561D9" offset="100%"></stop>
        </linearGradient>
        <path d="M145.499807,339 C156.224179,339 287,222.800181 287,143.530484 C287,64.2607865 222.752862,-2.84250104e-14 143.5,-2.84250104e-14 C64.2471384,-2.84250104e-14 -8.525692e-14,64.2607865 -8.525692e-14,143.530484 C-8.525692e-14,222.800181 134.775436,339 145.499807,339 Z" id="path-2"></path>
        <linearGradient x1="50%" y1="0%" x2="50%" y2="50%" id="linearGradient-4">
            <stop stop-color="#C23CD1" offset="0%"></stop>
            <stop stop-color="#FC4F4F" offset="100%"></stop>
        </linearGradient>
        <filter x="-12.1%" y="-3.4%" width="124.2%" height="106.8%" filterUnits="objectBoundingBox" id="filter-5">
            <feOffset dx="4" dy="4" in="SourceAlpha" result="shadowOffsetOuter1"></feOffset>
            <feColorMatrix values="0 0 0 0 0   0 0 0 0 0   0 0 0 0 0  0 0 0 0.152609232 0" type="matrix" in="shadowOffsetOuter1" result="shadowMatrixOuter1"></feColorMatrix>
            <feMerge>
                <feMergeNode in="shadowMatrixOuter1"></feMergeNode>
                <feMergeNode in="SourceGraphic"></feMergeNode>
            </feMerge>
        </filter>
        <path d="M43,206 L43,222.999 L49,223 C51.209139,223 53,224.790861 53,227 L53,231 C53,233.209139 51.209139,235 49,235 L43,234.999 L43,235 L25,235 L25,234.999 L17,235 C14.790861,235 13,233.209139 13,231 L13,227 C13,224.790861 14.790861,223 17,223 L25,222.999 L25,206 L43,206 Z M39,83 C44.5228475,83 49,87.4771525 49,93 L49,189 L62,189 C64.209139,189 66,190.790861 66,193 L66,197 C66,199.209139 64.209139,201 62,201 L4,201 C1.790861,201 2.705415e-16,199.209139 0,197 L0,193 C-2.705415e-16,190.790861 1.790861,189 4,189 L17,189 L17,93 C17,87.4771525 21.4771525,83 27,83 L39,83 Z M33,0 C34.1045695,-2.02906125e-16 35,0.8954305 35,2 L35.0009961,48.6218071 C35.8998146,49.1411278 36.5745085,49.9982128 36.8568216,51.0248057 L42.6083279,71.9393741 C43.1940954,74.0694378 41.942196,76.271054 39.8121322,76.8568216 C39.4666001,76.9518429 39.1098658,77 38.7515063,77 L27.2484937,77 C25.0393547,77 23.2484937,75.209139 23.2484937,73 C23.2484937,72.6416405 23.2966508,72.2849062 23.3916721,71.9393741 L29.1431784,51.0248057 C29.4336066,49.9687032 30.1212516,49.1284759 31.0004492,48.6210701 L31,2 C31,0.8954305 31.8954305,2.02906125e-16 33,0 Z" id="path-6"></path>
        <filter x="-3.8%" y="-1.1%" width="107.6%" height="102.1%" filterUnits="objectBoundingBox" id="filter-7">
            <feGaussianBlur stdDeviation="1.5" in="SourceAlpha" result="shadowBlurInner1"></feGaussianBlur>
            <feOffset dx="0" dy="-2" in="shadowBlurInner1" result="shadowOffsetInner1"></feOffset>
            <feComposite in="shadowOffsetInner1" in2="SourceAlpha" operator="arithmetic" k2="-1" k3="1" result="shadowInnerInner1"></feComposite>
            <feColorMatrix values="0 0 0 0 0   0 0 0 0 0   0 0 0 0 0  0 0 0 0.0836984061 0" type="matrix" in="shadowInnerInner1"></feColorMatrix>
        </filter>
    </defs>
    <g id="1-copy" stroke="none" stroke-width="1" fill="none" fill-rule="evenodd">
        <g id="Group-2" transform="translate(70.000000, 30.000000)">
            <mask id="mask-3" fill="white">
                <use xlink:href="#path-2"></use>
            </mask>
            <use id="Oval" fill="url(#linearGradient-1)" xlink:href="#path-2"></use>
            <circle id="Oval" fill="url(#linearGradient-4)" opacity="0.909700666" mask="url(#mask-3)" cx="143.5" cy="265.5" r="116.5"></circle>
            <g id="Group" filter="url(#filter-5)" mask="url(#mask-3)">
                <g transform="translate(111.000000, 35.000000)" id="Combined-Shape">
                    <use fill="#FFFFFF" fill-rule="evenodd" xlink:href="#path-6"></use>
                    <use fill="black" fill-opacity="1" filter="url(#filter-7)" xlink:href="#path-6"></use>
                </g>
            </g>
        </g>
        <path d="M110.616,431 L120.024,399.704 L112.824,399.704 L109.128,414.296 C108.68,416.024 108.264,417.696 107.88,419.312 C107.496,420.928 107.08,422.6 106.632,424.328 L106.632,424.328 L106.44,424.328 C105.96,422.6 105.536,420.928 105.168,419.312 C104.8,417.696 104.376,416.024 103.896,414.296 L103.896,414.296 L100.152,399.704 L92.664,399.704 L102.12,431 L110.616,431 Z M125.372,403.688 C126.588,403.688 127.572,403.344 128.324,402.656 C129.076,401.968 129.452,401.08 129.452,399.992 C129.452,398.904 129.076,398.024 128.324,397.352 C127.572,396.68 126.588,396.344 125.372,396.344 C124.188,396.344 123.212,396.68 122.444,397.352 C121.676,398.024 121.292,398.904 121.292,399.992 C121.292,401.08 121.676,401.968 122.444,402.656 C123.212,403.344 124.188,403.688 125.372,403.688 Z M128.924,431 L128.924,407.192 L121.868,407.192 L121.868,431 L128.924,431 Z M143.344,431.576 C144.496,431.576 145.504,431.48 146.368,431.288 C147.232,431.096 147.984,430.904 148.624,430.712 L148.624,430.712 L147.52,425.576 C147.2,425.704 146.84,425.816 146.44,425.912 C146.04,426.008 145.648,426.056 145.264,426.056 C144.336,426.056 143.592,425.76 143.032,425.168 C142.472,424.576 142.192,423.608 142.192,422.264 L142.192,422.264 L142.192,412.712 L147.904,412.712 L147.904,407.192 L142.192,407.192 L142.192,400.856 L136.336,400.856 L135.52,407.192 L131.872,407.48 L131.872,412.712 L135.136,412.712 L135.136,422.36 C135.136,423.736 135.288,424.992 135.592,426.128 C135.896,427.264 136.376,428.232 137.032,429.032 C137.688,429.832 138.536,430.456 139.576,430.904 C140.616,431.352 141.872,431.576 143.344,431.576 Z M161.412,431.576 C162.852,431.576 164.316,431.336 165.804,430.856 C167.292,430.376 168.644,429.72 169.86,428.888 L169.86,428.888 L167.508,424.616 C165.78,425.672 164.068,426.2 162.372,426.2 C160.772,426.2 159.42,425.792 158.316,424.976 C157.212,424.16 156.5,422.888 156.18,421.16 L156.18,421.16 L170.436,421.16 C170.5,420.872 170.564,420.44 170.628,419.864 C170.692,419.288 170.724,418.68 170.724,418.04 C170.724,416.408 170.516,414.896 170.1,413.504 C169.684,412.112 169.052,410.904 168.204,409.88 C167.356,408.856 166.3,408.056 165.036,407.48 C163.772,406.904 162.292,406.616 160.596,406.616 C159.156,406.616 157.764,406.904 156.42,407.48 C155.076,408.056 153.884,408.88 152.844,409.952 C151.804,411.024 150.964,412.336 150.324,413.888 C149.684,415.44 149.364,417.176 149.364,419.096 C149.364,421.08 149.668,422.84 150.276,424.376 C150.884,425.912 151.732,427.216 152.82,428.288 C153.908,429.36 155.188,430.176 156.66,430.736 C158.132,431.296 159.716,431.576 161.412,431.576 Z M164.724,416.504 L156.132,416.504 C156.388,414.968 156.94,413.832 157.788,413.096 C158.636,412.36 159.62,411.992 160.74,411.992 C162.18,411.992 163.204,412.408 163.812,413.24 C164.42,414.072 164.724,415.16 164.724,416.504 L164.724,416.504 Z M181.592,431 L181.592,419.528 C181.592,418.76 181.56,417.912 181.496,416.984 C181.432,416.056 181.352,415.12 181.256,414.176 C181.16,413.232 181.064,412.304 180.968,411.392 C180.872,410.48 180.776,409.64 180.68,408.872 L180.68,408.872 L180.872,408.872 L183.368,416.312 L187.832,428.264 L191.72,428.264 L196.184,416.312 L198.728,408.872 L198.92,408.872 C198.824,409.64 198.728,410.48 198.632,411.392 C198.536,412.304 198.44,413.232 198.344,414.176 C198.248,415.12 198.168,416.056 198.104,416.984 C198.04,417.912 198.008,418.76 198.008,419.528 L198.008,419.528 L198.008,431 L204.44,431 L204.44,399.704 L196.76,399.704 L191.816,413.624 C191.496,414.552 191.2,415.504 190.928,416.48 C190.656,417.456 190.36,418.424 190.04,419.384 L190.04,419.384 L189.848,419.384 C189.528,418.424 189.224,417.456 188.936,416.48 C188.648,415.504 188.344,414.552 188.024,413.624 L188.024,413.624 L182.984,399.704 L175.256,399.704 L175.256,431 L181.592,431 Z M216.316,431.576 C217.66,431.576 218.892,431.296 220.012,430.736 C221.132,430.176 222.204,429.448 223.228,428.552 L223.228,428.552 L223.42,428.552 L223.9,431 L229.66,431 L229.66,417.368 C229.66,413.688 228.852,410.976 227.236,409.232 C225.62,407.488 223.276,406.616 220.204,406.616 C218.316,406.616 216.532,406.904 214.852,407.48 C213.172,408.056 211.564,408.808 210.028,409.736 L210.028,409.736 L212.572,414.392 C213.724,413.72 214.804,413.192 215.812,412.808 C216.82,412.424 217.836,412.232 218.86,412.232 C220.172,412.232 221.108,412.544 221.668,413.168 C222.228,413.792 222.54,414.632 222.604,415.688 C217.9,416.168 214.492,417.112 212.38,418.52 C210.268,419.928 209.212,421.88 209.212,424.376 C209.212,425.4 209.38,426.344 209.716,427.208 C210.052,428.072 210.524,428.832 211.132,429.488 C211.74,430.144 212.484,430.656 213.364,431.024 C214.244,431.392 215.228,431.576 216.316,431.576 Z M218.716,426.104 C217.884,426.104 217.22,425.92 216.724,425.552 C216.228,425.184 215.98,424.616 215.98,423.848 C215.98,422.92 216.46,422.12 217.42,421.448 C218.38,420.776 220.108,420.264 222.604,419.912 L222.604,419.912 L222.604,424.088 C221.964,424.728 221.356,425.224 220.78,425.576 C220.204,425.928 219.516,426.104 218.716,426.104 Z M244.464,431 C246.768,431 248.856,430.68 250.728,430.04 C252.6,429.4 254.208,428.432 255.552,427.136 C256.896,425.84 257.936,424.2 258.672,422.216 C259.408,420.232 259.776,417.896 259.776,415.208 C259.776,412.52 259.408,410.2 258.672,408.248 C257.936,406.296 256.88,404.688 255.504,403.424 C254.128,402.16 252.48,401.224 250.56,400.616 C248.64,400.008 246.48,399.704 244.08,399.704 L244.08,399.704 L235.248,399.704 L235.248,431 L244.464,431 Z M243.648,425.288 L242.304,425.288 L242.304,405.416 L243.648,405.416 C244.992,405.416 246.208,405.576 247.296,405.896 C248.384,406.216 249.312,406.752 250.08,407.504 C250.848,408.256 251.448,409.264 251.88,410.528 C252.312,411.792 252.528,413.352 252.528,415.208 C252.528,417.096 252.312,418.68 251.88,419.96 C251.448,421.24 250.848,422.272 250.08,423.056 C249.312,423.84 248.384,424.408 247.296,424.76 C246.208,425.112 244.992,425.288 243.648,425.288 L243.648,425.288 Z M274.436,431.576 C275.94,431.576 277.388,431.296 278.78,430.736 C280.172,430.176 281.404,429.368 282.476,428.312 C283.548,427.256 284.404,425.952 285.044,424.4 C285.684,422.848 286.004,421.08 286.004,419.096 C286.004,417.112 285.684,415.344 285.044,413.792 C284.404,412.24 283.548,410.936 282.476,409.88 C281.404,408.824 280.172,408.016 278.78,407.456 C277.388,406.896 275.94,406.616 274.436,406.616 C272.932,406.616 271.476,406.896 270.068,407.456 C268.66,408.016 267.42,408.824 266.348,409.88 C265.276,410.936 264.42,412.24 263.78,413.792 C263.14,415.344 262.82,417.112 262.82,419.096 C262.82,421.08 263.14,422.848 263.78,424.4 C264.42,425.952 265.276,427.256 266.348,428.312 C267.42,429.368 268.66,430.176 270.068,430.736 C271.476,431.296 272.932,431.576 274.436,431.576 Z M274.436,425.864 C272.964,425.864 271.868,425.256 271.148,424.04 C270.428,422.824 270.068,421.176 270.068,419.096 C270.068,417.016 270.428,415.368 271.148,414.152 C271.868,412.936 272.964,412.328 274.436,412.328 C275.876,412.328 276.964,412.936 277.7,414.152 C278.436,415.368 278.804,417.016 278.804,419.096 C278.804,421.176 278.436,422.824 277.7,424.04 C276.964,425.256 275.876,425.864 274.436,425.864 Z M296.68,431.576 C298.28,431.576 299.688,431.376 300.904,430.976 C302.12,430.576 303.144,430.032 303.976,429.344 C304.808,428.656 305.432,427.848 305.848,426.92 C306.264,425.992 306.472,424.984 306.472,423.896 C306.472,422.808 306.28,421.872 305.896,421.088 C305.512,420.304 305.008,419.64 304.384,419.096 C303.76,418.552 303.072,418.096 302.32,417.728 C301.568,417.36 300.808,417.032 300.04,416.744 C299.432,416.52 298.848,416.304 298.288,416.096 C297.728,415.888 297.232,415.672 296.8,415.448 C296.368,415.224 296.024,414.976 295.768,414.704 C295.512,414.432 295.384,414.104 295.384,413.72 C295.384,412.472 296.28,411.848 298.072,411.848 C298.904,411.848 299.736,412.024 300.568,412.376 C301.4,412.728 302.248,413.224 303.112,413.864 L303.112,413.864 L306.28,409.64 C305.256,408.872 304.056,408.176 302.68,407.552 C301.304,406.928 299.704,406.616 297.88,406.616 C296.504,406.616 295.256,406.8 294.136,407.168 C293.016,407.536 292.056,408.04 291.256,408.68 C290.456,409.32 289.84,410.104 289.408,411.032 C288.976,411.96 288.76,412.968 288.76,414.056 C288.76,415.048 288.952,415.92 289.336,416.672 C289.72,417.424 290.216,418.08 290.824,418.64 C291.432,419.2 292.104,419.672 292.84,420.056 C293.576,420.44 294.312,420.776 295.048,421.064 C295.656,421.32 296.248,421.552 296.824,421.76 C297.4,421.968 297.92,422.2 298.384,422.456 C298.848,422.712 299.216,422.992 299.488,423.296 C299.76,423.6 299.896,423.944 299.896,424.328 C299.896,424.968 299.656,425.464 299.176,425.816 C298.696,426.168 297.928,426.344 296.872,426.344 C295.848,426.344 294.84,426.136 293.848,425.72 C292.856,425.304 291.816,424.68 290.728,423.848 L290.728,423.848 L287.56,428.264 C288.776,429.256 290.208,430.056 291.856,430.664 C293.504,431.272 295.112,431.576 296.68,431.576 Z M320.652,431.576 C322.092,431.576 323.556,431.336 325.044,430.856 C326.532,430.376 327.884,429.72 329.1,428.888 L329.1,428.888 L326.748,424.616 C325.02,425.672 323.308,426.2 321.612,426.2 C320.012,426.2 318.66,425.792 317.556,424.976 C316.452,424.16 315.74,422.888 315.42,421.16 L315.42,421.16 L329.676,421.16 C329.74,420.872 329.804,420.44 329.868,419.864 C329.932,419.288 329.964,418.68 329.964,418.04 C329.964,416.408 329.756,414.896 329.34,413.504 C328.924,412.112 328.292,410.904 327.444,409.88 C326.596,408.856 325.54,408.056 324.276,407.48 C323.012,406.904 321.532,406.616 319.836,406.616 C318.396,406.616 317.004,406.904 315.66,407.48 C314.316,408.056 313.124,408.88 312.084,409.952 C311.044,411.024 310.204,412.336 309.564,413.888 C308.924,415.44 308.604,417.176 308.604,419.096 C308.604,421.08 308.908,422.84 309.516,424.376 C310.124,425.912 310.972,427.216 312.06,428.288 C313.148,429.36 314.428,430.176 315.9,430.736 C317.372,431.296 318.956,431.576 320.652,431.576 Z M323.964,416.504 L315.372,416.504 C315.628,414.968 316.18,413.832 317.028,413.096 C317.876,412.36 318.86,411.992 319.98,411.992 C321.42,411.992 322.444,412.408 323.052,413.24 C323.66,414.072 323.964,415.16 323.964,416.504 L323.964,416.504 Z" id="ViteMaDose" fill="#000000" fill-rule="nonzero"></path>
    </g>
</svg>