<?xml version="1.0" encoding="UTF-8"?>
<svg width="284px" height="107px" viewBox="0 0 284 107" version="1.1" xmlns="http://www.w3.org/2000/svg" xmlns:xlink="http://www.w3.org/1999/xlink">
    <title>2@2x</title>
    <defs>
        <linearGradient x1="50%" y1="0%" x2="50%" y2="80.3939512%" id="linearGradient-1">
            <stop stop-color="#3CCBD1" offset="0%"></stop>
            <stop stop-color="#5561D9" offset="100%"></stop>
        </linearGradient>
        <path d="M26.8693024,63 C28.8497612,63 53,41.4053434 53,26.6738067 C53,11.9422701 41.1355459,-5.28252406e-15 26.5,-5.28252406e-15 C11.8644541,-5.28252406e-15 -1.57443093e-14,11.9422701 -1.57443093e-14,26.6738067 C-1.57443093e-14,41.4053434 24.8888436,63 26.8693024,63 Z" id="path-2"></path>
        <linearGradient x1="50%" y1="0%" x2="50%" y2="50%" id="linearGradient-4">
            <stop stop-color="#C23CD1" offset="0%"></stop>
            <stop stop-color="#FC4F4F" offset="100%"></stop>
        </linearGradient>
        <filter x="-20.5%" y="-5.7%" width="141.0%" height="111.4%" filterUnits="objectBoundingBox" id="filter-5">
            <feOffset dx="1" dy="1" in="SourceAlpha" result="shadowOffsetOuter1"></feOffset>
            <feColorMatrix values="0 0 0 0 0   0 0 0 0 0   0 0 0 0 0  0 0 0 0.152609232 0" type="matrix" in="shadowOffsetOuter1" result="shadowMatrixOuter1"></feColorMatrix>
            <feMerge>
                <feMergeNode in="shadowMatrixOuter1"></feMergeNode>
                <feMergeNode in="SourceGraphic"></feMergeNode>
            </feMerge>
        </filter>
        <path d="M7.94076655,38.2831858 L7.94069686,41.4421858 L9.04745645,41.4424779 C9.45614716,41.4424779 9.78745645,41.7737872 9.78745645,42.1824779 L9.78745645,42.9325664 C9.78745645,43.3412571 9.45614716,43.6725664 9.04745645,43.6725664 L3.14069686,43.6725664 C2.73200615,43.6725664 2.40069686,43.3412571 2.40069686,42.9325664 L2.40069686,42.1824779 C2.40069686,41.7737872 2.73200615,41.4424779 3.14069686,41.4424779 L4.61669686,41.4421858 L4.61672474,38.2831858 L7.94076655,38.2831858 Z M7.19878049,15.4247788 C8.22050727,15.4247788 9.04878049,16.253052 9.04878049,17.2747788 L9.048,35.123 L11.4481533,35.1238938 C11.856844,35.1238938 12.1881533,35.4552031 12.1881533,35.8638938 L12.1881533,36.6139823 C12.1881533,37.022673 11.856844,37.3539823 11.4481533,37.3539823 L0.74,37.3539823 C0.331309285,37.3539823 5.00501776e-17,37.022673 0,36.6139823 L0,35.8638938 C-1.6107248e-16,35.4552031 0.331309285,35.1238938 0.74,35.1238938 L3.139,35.123 L3.13937282,17.2747788 C3.13937282,16.253052 3.96764604,15.4247788 4.98937282,15.4247788 L7.19878049,15.4247788 Z M6.09407666,0 C6.29805639,-3.74704691e-17 6.46341463,0.165358246 6.46341463,0.369337979 L6.46433834,9.04265116 C6.63091669,9.13892428 6.75587476,9.29791415 6.80790415,9.4883124 L7.86991397,13.3746696 C7.97764533,13.7689057 7.7453874,14.1758306 7.35115136,14.283562 C7.2875851,14.3009325 7.2219834,14.3097345 7.15608648,14.3097345 L5.03206683,14.3097345 C4.62337612,14.3097345 4.29206683,13.9784252 4.29206683,13.5697345 C4.29206683,13.5038376 4.30086883,13.4382359 4.31823934,13.3746696 L5.38024916,9.4883124 C5.43377392,9.29244196 5.56115326,9.13655508 5.72413742,9.04248334 L5.72473868,0.369337979 C5.72473868,0.165358246 5.89009692,3.74704691e-17 6.09407666,0 Z" id="path-6"></path>
        <filter x="-8.2%" y="-2.3%" width="116.4%" height="104.6%" filterUnits="objectBoundingBox" id="filter-7">
            <feGaussianBlur stdDeviation="0.5" in="SourceAlpha" result="shadowBlurInner1"></feGaussianBlur>
            <feOffset dx="0" dy="-1" in="shadowBlurInner1" result="shadowOffsetInner1"></feOffset>
            <feComposite in="shadowOffsetInner1" in2="SourceAlpha" operator="arithmetic" k2="-1" k3="1" result="shadowInnerInner1"></feComposite>
            <feColorMatrix values="0 0 0 0 0   0 0 0 0 0   0 0 0 0 0  0 0 0 0.0836984061 0" type="matrix" in="shadowInnerInner1"></feColorMatrix>
        </filter>
    </defs>
    <g id="2" stroke="none" stroke-width="1" fill="none" fill-rule="evenodd">
        <g id="Group-2" transform="translate(20.000000, 24.000000)">
            <mask id="mask-3" fill="white">
                <use xlink:href="#path-2"></use>
            </mask>
            <use id="Oval" fill="url(#linearGradient-1)" xlink:href="#path-2"></use>
            <ellipse id="Oval" fill="url(#linearGradient-4)" opacity="0.909700666" mask="url(#mask-3)" cx="26.5" cy="49.340708" rx="21.5139373" ry="21.6504425"></ellipse>
            <g id="Group" filter="url(#filter-5)" mask="url(#mask-3)">
                <g transform="translate(20.498258, 6.504425)" id="Combined-Shape">
                    <use fill="#FFFFFF" fill-rule="evenodd" xlink:href="#path-6"></use>
                    <use fill="black" fill-opacity="1" filter="url(#filter-7)" xlink:href="#path-6"></use>
                </g>
            </g>
        </g>
        <path d="M100.212,55 L107.268,31.528 L101.868,31.528 L99.096,42.472 C98.76,43.768 98.448,45.022 98.16,46.234 C97.872,47.446 97.56,48.7 97.224,49.996 L97.224,49.996 L97.08,49.996 C96.72,48.7 96.402,47.446 96.126,46.234 C95.85,45.022 95.532,43.768 95.172,42.472 L95.172,42.472 L92.364,31.528 L86.748,31.528 L93.84,55 L100.212,55 Z M111.045538,34.516 C111.957538,34.516 112.695538,34.258 113.259538,33.742 C113.823538,33.226 114.105538,32.56 114.105538,31.744 C114.105538,30.928 113.823538,30.268 113.259538,29.764 C112.695538,29.26 111.957538,29.008 111.045538,29.008 C110.157538,29.008 109.425538,29.26 108.849538,29.764 C108.273538,30.268 107.985538,30.928 107.985538,31.744 C107.985538,32.56 108.273538,33.226 108.849538,33.742 C109.425538,34.258 110.157538,34.516 111.045538,34.516 Z M113.709538,55 L113.709538,37.144 L108.417538,37.144 L108.417538,55 L113.709538,55 Z M124.291076,55.432 C125.155076,55.432 125.911076,55.36 126.559076,55.216 C127.207076,55.072 127.771076,54.928 128.251076,54.784 L128.251076,54.784 L127.423076,50.932 C127.183076,51.028 126.913076,51.112 126.613076,51.184 C126.313076,51.256 126.019076,51.292 125.731076,51.292 C125.035076,51.292 124.477076,51.07 124.057076,50.626 C123.637076,50.182 123.427076,49.456 123.427076,48.448 L123.427076,48.448 L123.427076,41.284 L127.711076,41.284 L127.711076,37.144 L123.427076,37.144 L123.427076,32.392 L119.035076,32.392 L118.423076,37.144 L115.687076,37.36 L115.687076,41.284 L118.135076,41.284 L118.135076,48.52 C118.135076,49.552 118.249076,50.494 118.477076,51.346 C118.705076,52.198 119.065076,52.924 119.557076,53.524 C120.049076,54.124 120.685076,54.592 121.465076,54.928 C122.245076,55.264 123.187076,55.432 124.291076,55.432 Z M137.608614,55.432 C138.688614,55.432 139.786614,55.252 140.902614,54.892 C142.018614,54.532 143.032614,54.04 143.944614,53.416 L143.944614,53.416 L142.180614,50.212 C140.884614,51.004 139.600614,51.4 138.328614,51.4 C137.128614,51.4 136.114614,51.094 135.286614,50.482 C134.458614,49.87 133.924614,48.916 133.684614,47.62 L133.684614,47.62 L144.376614,47.62 C144.424614,47.404 144.472614,47.08 144.520614,46.648 C144.568614,46.216 144.592614,45.76 144.592614,45.28 C144.592614,44.056 144.436614,42.922 144.124614,41.878 C143.812614,40.834 143.338614,39.928 142.702614,39.16 C142.066614,38.392 141.274614,37.792 140.326614,37.36 C139.378614,36.928 138.268614,36.712 136.996614,36.712 C135.916614,36.712 134.872614,36.928 133.864614,37.36 C132.856614,37.792 131.962614,38.41 131.182614,39.214 C130.402614,40.018 129.772614,41.002 129.292614,42.166 C128.812614,43.33 128.572614,44.632 128.572614,46.072 C128.572614,47.56 128.800614,48.88 129.256614,50.032 C129.712614,51.184 130.348614,52.162 131.164614,52.966 C131.980614,53.77 132.940614,54.382 134.044614,54.802 C135.148614,55.222 136.336614,55.432 137.608614,55.432 Z M140.092614,44.128 L133.648614,44.128 C133.840614,42.976 134.254614,42.124 134.890614,41.572 C135.526614,41.02 136.264614,40.744 137.104614,40.744 C138.184614,40.744 138.952614,41.056 139.408614,41.68 C139.864614,42.304 140.092614,43.12 140.092614,44.128 L140.092614,44.128 Z M152.510152,55 L152.510152,46.396 C152.510152,45.82 152.486152,45.184 152.438152,44.488 C152.390152,43.792 152.330152,43.09 152.258152,42.382 C152.186152,41.674 152.114152,40.978 152.042152,40.294 C151.970152,39.61 151.898152,38.98 151.826152,38.404 L151.826152,38.404 L151.970152,38.404 L153.842152,43.984 L157.190152,52.948 L160.106152,52.948 L163.454152,43.984 L165.362152,38.404 L165.506152,38.404 C165.434152,38.98 165.362152,39.61 165.290152,40.294 C165.218152,40.978 165.146152,41.674 165.074152,42.382 C165.002152,43.09 164.942152,43.792 164.894152,44.488 C164.846152,45.184 164.822152,45.82 164.822152,46.396 L164.822152,46.396 L164.822152,55 L169.646152,55 L169.646152,31.528 L163.886152,31.528 L160.178152,41.968 C159.938152,42.664 159.716152,43.378 159.512152,44.11 C159.308152,44.842 159.086152,45.568 158.846152,46.288 L158.846152,46.288 L158.702152,46.288 C158.462152,45.568 158.234152,44.842 158.018152,44.11 C157.802152,43.378 157.574152,42.664 157.334152,41.968 L157.334152,41.968 L153.554152,31.528 L147.758152,31.528 L147.758152,55 L152.510152,55 Z M178.31969,55.432 C179.32769,55.432 180.25169,55.222 181.09169,54.802 C181.93169,54.382 182.73569,53.836 183.50369,53.164 L183.50369,53.164 L183.64769,53.164 L184.00769,55 L188.32769,55 L188.32769,44.776 C188.32769,42.016 187.72169,39.982 186.50969,38.674 C185.29769,37.366 183.53969,36.712 181.23569,36.712 C179.81969,36.712 178.48169,36.928 177.22169,37.36 C175.96169,37.792 174.75569,38.356 173.60369,39.052 L173.60369,39.052 L175.51169,42.544 C176.37569,42.04 177.18569,41.644 177.94169,41.356 C178.69769,41.068 179.45969,40.924 180.22769,40.924 C181.21169,40.924 181.91369,41.158 182.33369,41.626 C182.75369,42.094 182.98769,42.724 183.03569,43.516 C179.50769,43.876 176.95169,44.584 175.36769,45.64 C173.78369,46.696 172.99169,48.16 172.99169,50.032 C172.99169,50.8 173.11769,51.508 173.36969,52.156 C173.62169,52.804 173.97569,53.374 174.43169,53.866 C174.88769,54.358 175.44569,54.742 176.10569,55.018 C176.76569,55.294 177.50369,55.432 178.31969,55.432 Z M180.11969,51.328 C179.49569,51.328 178.99769,51.19 178.62569,50.914 C178.25369,50.638 178.06769,50.212 178.06769,49.636 C178.06769,48.94 178.42769,48.34 179.14769,47.836 C179.86769,47.332 181.16369,46.948 183.03569,46.684 L183.03569,46.684 L183.03569,49.816 C182.55569,50.296 182.09969,50.668 181.66769,50.932 C181.23569,51.196 180.71969,51.328 180.11969,51.328 Z M199.197228,55 C200.925228,55 202.491228,54.76 203.895228,54.28 C205.299228,53.8 206.505228,53.074 207.513228,52.102 C208.521228,51.13 209.301228,49.9 209.853228,48.412 C210.405228,46.924 210.681228,45.172 210.681228,43.156 C210.681228,41.14 210.405228,39.4 209.853228,37.936 C209.301228,36.472 208.509228,35.266 207.477228,34.318 C206.445228,33.37 205.209228,32.668 203.769228,32.212 C202.329228,31.756 200.709228,31.528 198.909228,31.528 L198.909228,31.528 L192.285228,31.528 L192.285228,55 L199.197228,55 Z M198.585228,50.716 L197.577228,50.716 L197.577228,35.812 L198.585228,35.812 C199.593228,35.812 200.505228,35.932 201.321228,36.172 C202.137228,36.412 202.833228,36.814 203.409228,37.378 C203.985228,37.942 204.435228,38.698 204.759228,39.646 C205.083228,40.594 205.245228,41.764 205.245228,43.156 C205.245228,44.572 205.083228,45.76 204.759228,46.72 C204.435228,47.68 203.985228,48.454 203.409228,49.042 C202.833228,49.63 202.137228,50.056 201.321228,50.32 C200.505228,50.584 199.593228,50.716 198.585228,50.716 L198.585228,50.716 Z M221.442766,55.432 C222.570766,55.432 223.656766,55.222 224.700766,54.802 C225.744766,54.382 226.668766,53.776 227.472766,52.984 C228.276766,52.192 228.918766,51.214 229.398766,50.05 C229.878766,48.886 230.118766,47.56 230.118766,46.072 C230.118766,44.584 229.878766,43.258 229.398766,42.094 C228.918766,40.93 228.276766,39.952 227.472766,39.16 C226.668766,38.368 225.744766,37.762 224.700766,37.342 C223.656766,36.922 222.570766,36.712 221.442766,36.712 C220.314766,36.712 219.222766,36.922 218.166766,37.342 C217.110766,37.762 216.180766,38.368 215.376766,39.16 C214.572766,39.952 213.930766,40.93 213.450766,42.094 C212.970766,43.258 212.730766,44.584 212.730766,46.072 C212.730766,47.56 212.970766,48.886 213.450766,50.05 C213.930766,51.214 214.572766,52.192 215.376766,52.984 C216.180766,53.776 217.110766,54.382 218.166766,54.802 C219.222766,55.222 220.314766,55.432 221.442766,55.432 Z M221.442766,51.148 C220.338766,51.148 219.516766,50.692 218.976766,49.78 C218.436766,48.868 218.166766,47.632 218.166766,46.072 C218.166766,44.512 218.436766,43.276 218.976766,42.364 C219.516766,41.452 220.338766,40.996 221.442766,40.996 C222.522766,40.996 223.338766,41.452 223.890766,42.364 C224.442766,43.276 224.718766,44.512 224.718766,46.072 C224.718766,47.632 224.442766,48.868 223.890766,49.78 C223.338766,50.692 222.522766,51.148 221.442766,51.148 Z M237.892304,55.432 C239.092304,55.432 240.148304,55.282 241.060304,54.982 C241.972304,54.682 242.740304,54.274 243.364304,53.758 C243.988304,53.242 244.456304,52.636 244.768304,51.94 C245.080304,51.244 245.236304,50.488 245.236304,49.672 C245.236304,48.856 245.092304,48.154 244.804304,47.566 C244.516304,46.978 244.138304,46.48 243.670304,46.072 C243.202304,45.664 242.686304,45.322 242.122304,45.046 C241.558304,44.77 240.988304,44.524 240.412304,44.308 C239.956304,44.14 239.518304,43.978 239.098304,43.822 C238.678304,43.666 238.306304,43.504 237.982304,43.336 C237.658304,43.168 237.400304,42.982 237.208304,42.778 C237.016304,42.574 236.920304,42.328 236.920304,42.04 C236.920304,41.104 237.592304,40.636 238.936304,40.636 C239.560304,40.636 240.184304,40.768 240.808304,41.032 C241.432304,41.296 242.068304,41.668 242.716304,42.148 L242.716304,42.148 L245.092304,38.98 C244.324304,38.404 243.424304,37.882 242.392304,37.414 C241.360304,36.946 240.160304,36.712 238.792304,36.712 C237.760304,36.712 236.824304,36.85 235.984304,37.126 C235.144304,37.402 234.424304,37.78 233.824304,38.26 C233.224304,38.74 232.762304,39.328 232.438304,40.024 C232.114304,40.72 231.952304,41.476 231.952304,42.292 C231.952304,43.036 232.096304,43.69 232.384304,44.254 C232.672304,44.818 233.044304,45.31 233.500304,45.73 C233.956304,46.15 234.460304,46.504 235.012304,46.792 C235.564304,47.08 236.116304,47.332 236.668304,47.548 C237.124304,47.74 237.568304,47.914 238.000304,48.07 C238.432304,48.226 238.822304,48.4 239.170304,48.592 C239.518304,48.784 239.794304,48.994 239.998304,49.222 C240.202304,49.45 240.304304,49.708 240.304304,49.996 C240.304304,50.476 240.124304,50.848 239.764304,51.112 C239.404304,51.376 238.828304,51.508 238.036304,51.508 C237.268304,51.508 236.512304,51.352 235.768304,51.04 C235.024304,50.728 234.244304,50.26 233.428304,49.636 L233.428304,49.636 L231.052304,52.948 C231.964304,53.692 233.038304,54.292 234.274304,54.748 C235.510304,55.204 236.716304,55.432 237.892304,55.432 Z M255.637842,55.432 C256.717842,55.432 257.815842,55.252 258.931842,54.892 C260.047842,54.532 261.061842,54.04 261.973842,53.416 L261.973842,53.416 L260.209842,50.212 C258.913842,51.004 257.629842,51.4 256.357842,51.4 C255.157842,51.4 254.143842,51.094 253.315842,50.482 C252.487842,49.87 251.953842,48.916 251.713842,47.62 L251.713842,47.62 L262.405842,47.62 C262.453842,47.404 262.501842,47.08 262.549842,46.648 C262.597842,46.216 262.621842,45.76 262.621842,45.28 C262.621842,44.056 262.465842,42.922 262.153842,41.878 C261.841842,40.834 261.367842,39.928 260.731842,39.16 C260.095842,38.392 259.303842,37.792 258.355842,37.36 C257.407842,36.928 256.297842,36.712 255.025842,36.712 C253.945842,36.712 252.901842,36.928 251.893842,37.36 C250.885842,37.792 249.991842,38.41 249.211842,39.214 C248.431842,40.018 247.801842,41.002 247.321842,42.166 C246.841842,43.33 246.601842,44.632 246.601842,46.072 C246.601842,47.56 246.829842,48.88 247.285842,50.032 C247.741842,51.184 248.377842,52.162 249.193842,52.966 C250.009842,53.77 250.969842,54.382 252.073842,54.802 C253.177842,55.222 254.365842,55.432 255.637842,55.432 Z M258.121842,44.128 L251.677842,44.128 C251.869842,42.976 252.283842,42.124 252.919842,41.572 C253.555842,41.02 254.293842,40.744 255.133842,40.744 C256.213842,40.744 256.981842,41.056 257.437842,41.68 C257.893842,42.304 258.121842,43.12 258.121842,44.128 L258.121842,44.128 Z" id="ViteMaDose" fill="#000000" fill-rule="nonzero"></path>
        <path d="M89.624,82.28 L89.624,79.656 L89.592,78.296 C89.9546667,78.5733333 90.3146667,78.792 90.672,78.952 C91.0293333,79.112 91.3893333,79.192 91.752,79.192 C92.2,79.192 92.6266667,79.0986667 93.032,78.912 C93.4373333,78.7253333 93.7946667,78.4506667 94.104,78.088 C94.4133333,77.7253333 94.6586667,77.2853333 94.84,76.768 C95.0213333,76.2506667 95.112,75.6613333 95.112,75 C95.112,74.392 95.0453333,73.8453333 94.912,73.36 C94.7786667,72.8746667 94.584,72.4586667 94.328,72.112 C94.072,71.7653333 93.752,71.4986667 93.368,71.312 C92.984,71.1253333 92.5413333,71.032 92.04,71.032 C91.5813333,71.032 91.1413333,71.1386667 90.72,71.352 C90.2986667,71.5653333 89.912,71.8213333 89.56,72.12 L89.56,72.12 L89.512,72.12 L89.4,71.224 L88.312,71.224 L88.312,82.28 L89.624,82.28 Z M91.528,78.088 C91.272,78.088 90.9786667,78.0266667 90.648,77.904 C90.3173333,77.7813333 89.976,77.5706667 89.624,77.272 L89.624,77.272 L89.624,73.192 C90.008,72.8506667 90.368,72.5893333 90.704,72.408 C91.04,72.2266667 91.3733333,72.136 91.704,72.136 C92.0666667,72.136 92.3786667,72.2053333 92.64,72.344 C92.9013333,72.4826667 93.1146667,72.6773333 93.28,72.928 C93.4453333,73.1786667 93.5653333,73.48 93.64,73.832 C93.7146667,74.184 93.752,74.5733333 93.752,75 C93.752,75.48 93.696,75.912 93.584,76.296 C93.472,76.68 93.3173333,77.0026667 93.12,77.264 C92.9226667,77.5253333 92.688,77.728 92.416,77.872 C92.144,78.016 91.848,78.088 91.528,78.088 Z M98.2984615,79.192 C98.7891282,79.192 99.2477949,79.0826667 99.6744615,78.864 C100.101128,78.6453333 100.501128,78.3813333 100.874462,78.072 L100.874462,78.072 L100.922462,78.072 L101.034462,79 L102.122462,79 L102.122462,74.232 C102.122462,73.2613333 101.909128,72.4853333 101.482462,71.904 C101.055795,71.3226667 100.367795,71.032 99.4184615,71.032 C98.7891282,71.032 98.2131282,71.1413333 97.6904615,71.36 C97.1677949,71.5786667 96.7251282,71.8053333 96.3624615,72.04 L96.3624615,72.04 L96.8744615,72.952 C97.1837949,72.7386667 97.5357949,72.5466667 97.9304615,72.376 C98.3251282,72.2053333 98.7464615,72.12 99.1944615,72.12 C99.5144615,72.12 99.7784615,72.176 99.9864615,72.288 C100.194462,72.4 100.357128,72.5466667 100.474462,72.728 C100.591795,72.9093333 100.674462,73.1173333 100.722462,73.352 C100.770462,73.5866667 100.794462,73.8266667 100.794462,74.072 C99.1304615,74.2533333 97.9197949,74.5706667 97.1624615,75.024 C96.4051282,75.4773333 96.0264615,76.1306667 96.0264615,76.984 C96.0264615,77.688 96.2424615,78.232 96.6744615,78.616 C97.1064615,79 97.6477949,79.192 98.2984615,79.192 Z M98.6824615,78.136 C98.2984615,78.136 97.9731282,78.04 97.7064615,77.848 C97.4397949,77.656 97.3064615,77.336 97.3064615,76.888 C97.3064615,76.6426667 97.3677949,76.416 97.4904615,76.208 C97.6131282,76 97.8104615,75.816 98.0824615,75.656 C98.3544615,75.496 98.7117949,75.3573333 99.1544615,75.24 C99.5971282,75.1226667 100.143795,75.0213333 100.794462,74.936 L100.794462,74.936 L100.794462,77.096 C100.421128,77.4373333 100.069128,77.696 99.7384615,77.872 C99.4077949,78.048 99.0557949,78.136 98.6824615,78.136 Z M105.420923,79 L105.420923,74.008 C105.68759,73.3466667 105.99959,72.8826667 106.356923,72.616 C106.714256,72.3493333 107.058256,72.216 107.388923,72.216 C107.548923,72.216 107.682256,72.2266667 107.788923,72.248 C107.89559,72.2693333 108.012923,72.3013333 108.140923,72.344 L108.140923,72.344 L108.396923,71.192 C108.15159,71.0853333 107.874256,71.032 107.564923,71.032 C107.116923,71.032 106.70359,71.176 106.324923,71.464 C105.946256,71.752 105.62359,72.1413333 105.356923,72.632 L105.356923,72.632 L105.308923,72.632 L105.196923,71.224 L104.108923,71.224 L104.108923,79 L105.420923,79 Z M116.033846,79.192 C116.716513,79.192 117.319179,79.0586667 117.841846,78.792 C118.364513,78.5253333 118.833846,78.152 119.249846,77.672 L119.249846,77.672 L118.513846,76.84 C118.172513,77.2133333 117.809846,77.504 117.425846,77.712 C117.041846,77.92 116.593846,78.024 116.081846,78.024 C115.580513,78.024 115.129846,77.9226667 114.729846,77.72 C114.329846,77.5173333 113.991179,77.2293333 113.713846,76.856 C113.436513,76.4826667 113.220513,76.032 113.065846,75.504 C112.911179,74.976 112.833846,74.3813333 112.833846,73.72 C112.833846,73.0693333 112.911179,72.4826667 113.065846,71.96 C113.220513,71.4373333 113.441846,70.992 113.729846,70.624 C114.017846,70.256 114.364513,69.9733333 114.769846,69.776 C115.175179,69.5786667 115.628513,69.48 116.129846,69.48 C116.577846,69.48 116.977846,69.5706667 117.329846,69.752 C117.681846,69.9333333 117.996513,70.1733333 118.273846,70.472 L118.273846,70.472 L118.993846,69.608 C118.684513,69.2666667 118.287179,68.9653333 117.801846,68.704 C117.316513,68.4426667 116.753846,68.312 116.113846,68.312 C115.441846,68.312 114.823179,68.4373333 114.257846,68.688 C113.692513,68.9386667 113.201846,69.2986667 112.785846,69.768 C112.369846,70.2373333 112.044513,70.808 111.809846,71.48 C111.575179,72.152 111.457846,72.9093333 111.457846,73.752 C111.457846,74.6053333 111.572513,75.3706667 111.801846,76.048 C112.031179,76.7253333 112.351179,77.296 112.761846,77.76 C113.172513,78.224 113.655179,78.5786667 114.209846,78.824 C114.764513,79.0693333 115.372513,79.192 116.033846,79.192 Z M123.636308,79.192 C124.116308,79.192 124.572308,79.1013333 125.004308,78.92 C125.436308,78.7386667 125.817641,78.4746667 126.148308,78.128 C126.478974,77.7813333 126.742974,77.3546667 126.940308,76.848 C127.137641,76.3413333 127.236308,75.768 127.236308,75.128 C127.236308,74.4773333 127.137641,73.8986667 126.940308,73.392 C126.742974,72.8853333 126.478974,72.456 126.148308,72.104 C125.817641,71.752 125.436308,71.4853333 125.004308,71.304 C124.572308,71.1226667 124.116308,71.032 123.636308,71.032 C123.156308,71.032 122.700308,71.1226667 122.268308,71.304 C121.836308,71.4853333 121.454974,71.752 121.124308,72.104 C120.793641,72.456 120.529641,72.8853333 120.332308,73.392 C120.134974,73.8986667 120.036308,74.4773333 120.036308,75.128 C120.036308,75.768 120.134974,76.3413333 120.332308,76.848 C120.529641,77.3546667 120.793641,77.7813333 121.124308,78.128 C121.454974,78.4746667 121.836308,78.7386667 122.268308,78.92 C122.700308,79.1013333 123.156308,79.192 123.636308,79.192 Z M123.636308,78.104 C123.305641,78.104 123.001641,78.032 122.724308,77.888 C122.446974,77.744 122.209641,77.5413333 122.012308,77.28 C121.814974,77.0186667 121.662974,76.7066667 121.556308,76.344 C121.449641,75.9813333 121.396308,75.576 121.396308,75.128 C121.396308,74.68 121.449641,74.272 121.556308,73.904 C121.662974,73.536 121.814974,73.2186667 122.012308,72.952 C122.209641,72.6853333 122.446974,72.48 122.724308,72.336 C123.001641,72.192 123.305641,72.12 123.636308,72.12 C123.966974,72.12 124.270974,72.192 124.548308,72.336 C124.825641,72.48 125.062974,72.6853333 125.260308,72.952 C125.457641,73.2186667 125.609641,73.536 125.716308,73.904 C125.822974,74.272 125.876308,74.68 125.876308,75.128 C125.876308,75.576 125.822974,75.9813333 125.716308,76.344 C125.609641,76.7066667 125.457641,77.0186667 125.260308,77.28 C125.062974,77.5413333 124.825641,77.744 124.548308,77.888 C124.270974,78.032 123.966974,78.104 123.636308,78.104 Z M131.974769,79 L134.726769,71.224 L133.430769,71.224 L131.958769,75.64 C131.841436,76.024 131.724103,76.408 131.606769,76.792 C131.489436,77.176 131.372103,77.5546667 131.254769,77.928 L131.254769,77.928 L131.190769,77.928 C131.073436,77.5546667 130.953436,77.176 130.830769,76.792 C130.708103,76.408 130.588103,76.024 130.470769,75.64 L130.470769,75.64 L128.998769,71.224 L127.638769,71.224 L130.438769,79 L131.974769,79 Z M136.441231,69.624 C136.697231,69.624 136.913231,69.544 137.089231,69.384 C137.265231,69.224 137.353231,69.0213333 137.353231,68.776 C137.353231,68.52 137.265231,68.3146667 137.089231,68.16 C136.913231,68.0053333 136.697231,67.928 136.441231,67.928 C136.185231,67.928 135.969231,68.0053333 135.793231,68.16 C135.617231,68.3146667 135.529231,68.52 135.529231,68.776 C135.529231,69.0213333 135.617231,69.224 135.793231,69.384 C135.969231,69.544 136.185231,69.624 136.441231,69.624 Z M137.081231,79 L137.081231,71.224 L135.769231,71.224 L135.769231,79 L137.081231,79 Z M141.899692,79.192 C142.358359,79.192 142.787692,79.0826667 143.187692,78.864 C143.587692,78.6453333 143.942359,78.3866667 144.251692,78.088 L144.251692,78.088 L144.299692,78.088 L144.411692,79 L145.499692,79 L145.499692,67.608 L144.171692,67.608 L144.171692,70.6 L144.235692,71.928 C143.894359,71.6506667 143.558359,71.432 143.227692,71.272 C142.897026,71.112 142.507692,71.032 142.059692,71.032 C141.611692,71.032 141.185026,71.128 140.779692,71.32 C140.374359,71.512 140.017026,71.784 139.707692,72.136 C139.398359,72.488 139.150359,72.9173333 138.963692,73.424 C138.777026,73.9306667 138.683692,74.4986667 138.683692,75.128 C138.683692,76.4293333 138.974359,77.432 139.555692,78.136 C140.137026,78.84 140.918359,79.192 141.899692,79.192 Z M142.187692,78.088 C141.505026,78.088 140.977026,77.8266667 140.603692,77.304 C140.230359,76.7813333 140.043692,76.0506667 140.043692,75.112 C140.043692,74.664 140.102359,74.2586667 140.219692,73.896 C140.337026,73.5333333 140.497026,73.2213333 140.699692,72.96 C140.902359,72.6986667 141.139692,72.496 141.411692,72.352 C141.683692,72.208 141.974359,72.136 142.283692,72.136 C142.603692,72.136 142.915692,72.1973333 143.219692,72.32 C143.523692,72.4426667 143.841026,72.6533333 144.171692,72.952 L144.171692,72.952 L144.171692,77.016 C143.851692,77.3786667 143.531692,77.648 143.211692,77.824 C142.891692,78 142.550359,78.088 142.187692,78.088 Z M151.310154,79 L151.310154,69.624 L154.478154,69.624 L154.478154,68.504 L146.798154,68.504 L146.798154,69.624 L149.966154,69.624 L149.966154,79 L151.310154,79 Z M156.352615,79 L156.352615,74.008 C156.619282,73.3466667 156.931282,72.8826667 157.288615,72.616 C157.645949,72.3493333 157.989949,72.216 158.320615,72.216 C158.480615,72.216 158.613949,72.2266667 158.720615,72.248 C158.827282,72.2693333 158.944615,72.3013333 159.072615,72.344 L159.072615,72.344 L159.328615,71.192 C159.083282,71.0853333 158.805949,71.032 158.496615,71.032 C158.048615,71.032 157.635282,71.176 157.256615,71.464 C156.877949,71.752 156.555282,72.1413333 156.288615,72.632 L156.288615,72.632 L156.240615,72.632 L156.128615,71.224 L155.040615,71.224 L155.040615,79 L156.352615,79 Z M161.539077,79.192 C162.029744,79.192 162.48841,79.0826667 162.915077,78.864 C163.341744,78.6453333 163.741744,78.3813333 164.115077,78.072 L164.115077,78.072 L164.163077,78.072 L164.275077,79 L165.363077,79 L165.363077,74.232 C165.363077,73.2613333 165.149744,72.4853333 164.723077,71.904 C164.29641,71.3226667 163.60841,71.032 162.659077,71.032 C162.029744,71.032 161.453744,71.1413333 160.931077,71.36 C160.40841,71.5786667 159.965744,71.8053333 159.603077,72.04 L159.603077,72.04 L160.115077,72.952 C160.42441,72.7386667 160.77641,72.5466667 161.171077,72.376 C161.565744,72.2053333 161.987077,72.12 162.435077,72.12 C162.755077,72.12 163.019077,72.176 163.227077,72.288 C163.435077,72.4 163.597744,72.5466667 163.715077,72.728 C163.83241,72.9093333 163.915077,73.1173333 163.963077,73.352 C164.011077,73.5866667 164.035077,73.8266667 164.035077,74.072 C162.371077,74.2533333 161.16041,74.5706667 160.403077,75.024 C159.645744,75.4773333 159.267077,76.1306667 159.267077,76.984 C159.267077,77.688 159.483077,78.232 159.915077,78.616 C160.347077,79 160.88841,79.192 161.539077,79.192 Z M161.923077,78.136 C161.539077,78.136 161.213744,78.04 160.947077,77.848 C160.68041,77.656 160.547077,77.336 160.547077,76.888 C160.547077,76.6426667 160.60841,76.416 160.731077,76.208 C160.853744,76 161.051077,75.816 161.323077,75.656 C161.595077,75.496 161.95241,75.3573333 162.395077,75.24 C162.837744,75.1226667 163.38441,75.0213333 164.035077,74.936 L164.035077,74.936 L164.035077,77.096 C163.661744,77.4373333 163.309744,77.696 162.979077,77.872 C162.64841,78.048 162.29641,78.136 161.923077,78.136 Z M170.421538,79.192 C170.890872,79.192 171.338872,79.104 171.765538,78.928 C172.192205,78.752 172.581538,78.5093333 172.933538,78.2 L172.933538,78.2 L172.357538,77.32 C172.112205,77.5333333 171.837538,77.7173333 171.533538,77.872 C171.229538,78.0266667 170.896205,78.104 170.533538,78.104 C170.181538,78.104 169.856205,78.032 169.557538,77.888 C169.258872,77.744 169.005538,77.5413333 168.797538,77.28 C168.589538,77.0186667 168.426872,76.7066667 168.309538,76.344 C168.192205,75.9813333 168.133538,75.576 168.133538,75.128 C168.133538,74.68 168.194872,74.272 168.317538,73.904 C168.440205,73.536 168.608205,73.2186667 168.821538,72.952 C169.034872,72.6853333 169.290872,72.48 169.589538,72.336 C169.888205,72.192 170.213538,72.12 170.565538,72.12 C170.874872,72.12 171.154872,72.184 171.405538,72.312 C171.656205,72.44 171.893538,72.6053333 172.117538,72.808 L172.117538,72.808 L172.789538,71.944 C172.512205,71.6986667 172.192205,71.4853333 171.829538,71.304 C171.466872,71.1226667 171.029538,71.032 170.517538,71.032 C170.016205,71.032 169.538872,71.1226667 169.085538,71.304 C168.632205,71.4853333 168.234872,71.752 167.893538,72.104 C167.552205,72.456 167.280205,72.8853333 167.077538,73.392 C166.874872,73.8986667 166.773538,74.4773333 166.773538,75.128 C166.773538,75.768 166.866872,76.3413333 167.053538,76.848 C167.240205,77.3546667 167.496205,77.7813333 167.821538,78.128 C168.146872,78.4746667 168.533538,78.7386667 168.981538,78.92 C169.429538,79.1013333 169.909538,79.192 170.421538,79.192 Z M175.48,79 L175.48,76.952 L176.936,75.256 L179.208,79 L180.648,79 L177.688,74.344 L180.296,71.224 L178.84,71.224 L175.528,75.32 L175.48,75.32 L175.48,67.608 L174.184,67.608 L174.184,79 L175.48,79 Z M184.506462,79.192 C185.039795,79.192 185.514462,79.112 185.930462,78.952 C186.346462,78.792 186.725128,78.6053333 187.066462,78.392 L187.066462,78.392 L186.602462,77.528 C186.314462,77.7093333 186.013128,77.856 185.698462,77.968 C185.383795,78.08 185.039795,78.136 184.666462,78.136 C183.919795,78.136 183.314462,77.8933333 182.850462,77.408 C182.386462,76.9226667 182.127795,76.264 182.074462,75.432 L182.074462,75.432 L187.322462,75.432 C187.343795,75.336 187.357128,75.2213333 187.362462,75.088 C187.367795,74.9546667 187.370462,74.8186667 187.370462,74.68 C187.370462,74.1253333 187.301128,73.624 187.162462,73.176 C187.023795,72.728 186.823795,72.344 186.562462,72.024 C186.301128,71.704 185.975795,71.4586667 185.586462,71.288 C185.197128,71.1173333 184.757128,71.032 184.266462,71.032 C183.818462,71.032 183.386462,71.1253333 182.970462,71.312 C182.554462,71.4986667 182.183795,71.768 181.858462,72.12 C181.533128,72.472 181.271795,72.9013333 181.074462,73.408 C180.877128,73.9146667 180.778462,74.488 180.778462,75.128 C180.778462,75.768 180.874462,76.3386667 181.066462,76.84 C181.258462,77.3413333 181.522462,77.7653333 181.858462,78.112 C182.194462,78.4586667 182.589128,78.7253333 183.042462,78.912 C183.495795,79.0986667 183.983795,79.192 184.506462,79.192 Z M186.218462,74.488 L182.058462,74.488 C182.101128,74.104 182.189128,73.7626667 182.322462,73.464 C182.455795,73.1653333 182.623795,72.912 182.826462,72.704 C183.029128,72.496 183.255795,72.3386667 183.506462,72.232 C183.757128,72.1253333 184.021128,72.072 184.298462,72.072 C184.906462,72.072 185.378462,72.2773333 185.714462,72.688 C186.050462,73.0986667 186.218462,73.6986667 186.218462,74.488 L186.218462,74.488 Z M190.140923,79 L190.140923,74.008 C190.40759,73.3466667 190.71959,72.8826667 191.076923,72.616 C191.434256,72.3493333 191.778256,72.216 192.108923,72.216 C192.268923,72.216 192.402256,72.2266667 192.508923,72.248 C192.61559,72.2693333 192.732923,72.3013333 192.860923,72.344 L192.860923,72.344 L193.116923,71.192 C192.87159,71.0853333 192.594256,71.032 192.284923,71.032 C191.836923,71.032 191.42359,71.176 191.044923,71.464 C190.666256,71.752 190.34359,72.1413333 190.076923,72.632 L190.076923,72.632 L190.028923,72.632 L189.916923,71.224 L188.828923,71.224 L188.828923,79 L190.140923,79 Z" id="parCovidTracker" fill="#696969" fill-rule="nonzero"></path>
    </g>
</svg>